<?xml version="1.0" encoding="UTF-8"?>
<svg viewBox="0 0 416 64"
     width="200px" height="18px"
     xmlns="http://www.w3.org/2000/svg">
<g fill="#c1c7cd">
<g transform="translate(4 4)">
<path d="m2.5224 20.586c-4.7343 8.2155-1.7246 20.683 3.5107 28.242 2.6133 3.7794 5.259 7.1719 8.8829 7.1719 0.068302 0 0.13679-0.0012852 0.20692-0.0040393 1.7026-0.067934 2.9329-0.59213 4.1225-1.0987 1.3356-0.56918 2.7168-1.1576 4.8834-1.1576 2.0612 0 3.3765 0.56936 4.6486 1.1198 1.2537 0.54237 2.545 1.1035 4.453 1.0677 4.0819-0.076013 6.5882-3.7368 8.7993-6.9662 2.3074-3.3719 3.4648-6.6458 3.8554-7.8969l0.01579-0.049757c0.074361-0.22235-0.030662-0.46508-0.24383-0.56294-0.0058754-0.0027541-0.027541-0.011751-0.0336-0.014321-0.71882-0.29395-7.0242-3.0912-7.0905-10.715-0.061508-6.1942 4.7303-9.4743 5.6913-10.069l0.0448-0.027908c0.1041-0.067016 0.17663-0.17332 0.20123-0.29487 0.024603-0.12136-0.0011016-0.24769-0.070872-0.34977-3.3075-4.8402-8.3769-5.5697-10.418-5.6575-0.29616-0.029561-0.60186-0.044433-0.90885-0.044433-2.3972 0-4.6935 0.90536-6.5384 1.6328-1.2735 0.50216-2.3735 0.93584-3.1321 0.93584-0.85249 0-1.9587-0.439-3.2397-0.94723-1.713-0.6799-3.6547-1.4503-5.7102-1.4503-0.049023 0-0.097312 5.509e-4 -0.14487 0.0014689-4.7793 0.070321-9.2953 2.8046-11.785 7.1348z"/>
<path d="m33.986 3.6721e-4c-2.8942 0.11788-6.366 1.8994-8.4411 4.33-1.7635 2.043-3.4863 5.4493-3.0324 8.8827 0.028459 0.21482 0.20325 0.38062 0.41936 0.39732 0.19536 0.015239 0.39475 0.022951 0.59342 0.023134 2.8299 0 5.8828-1.5656 7.9676-4.0865 2.1943-2.6619 3.3038-6.0781 2.9682-9.1381-0.026439-0.23979-0.2374-0.41789-0.47499-0.40852z"/>
</g>
<path transform="translate(90 4)" d="m1.0869 2.0623c-0.66309 0.87628-1.0322 1.9542-1.0322 3.1078v45.659c0 1.0715 0.31958 2.0781 0.89679 2.9189l24.844-25.913-24.708-25.772zm26.983 23.399 8.0596-8.4065-28.33-16.356c-1.2296-0.71008-2.6404-0.87842-3.9567-0.50842l24.227 25.271zm0 4.7454-24.472 25.526c0.52765 0.17731 1.0737 0.2666 1.6201 0.2666 0.88654 0 1.7735-0.23328 2.5814-0.69983l28.534-16.474-8.2634-8.6188zm19.271-6.6787-8.2826-4.7822-8.7133 9.088 8.9166 9.3011 8.0792-4.6647c1.6167-0.93311 2.5818-2.6049 2.5818-4.4711 0-1.8666-0.96515-3.538-2.5818-4.4711z"/>
<path transform="translate(175 4)" d="m56 9.334c0-4.9044-4.4277-9.334-9.3333-9.334h-37.333c-4.9056 0-9.3333 4.4296-9.3333 9.334v37.332c0 4.9044 4.4277 9.334 9.334 9.334h18.666v-21.156h-6.8444v-9.3333h6.8444v-3.6363c0-6.2714 4.709-11.919 10.5-11.919h7.5444v9.3333h-7.5444c-0.82569 0-1.7889 1.0024-1.7889 2.5038v3.7184h9.3333v9.3333h-9.3333v21.156h9.9556c4.9056 0 9.3333-4.4296 9.3333-9.334v-37.332z"/>
<path transform="translate(351 13)" d="m49.553 17.234c3.1387-0.25895 5.2678-1.6858 6.0871-3.6219-1.1322 0.69552-4.6468 1.4538-6.5879 0.73164-0.095109-0.45606-0.20139-0.88924-0.30573-1.2803-1.479-5.4308-6.5429-9.8061-11.849-9.2775 0.42929-0.17333 0.86469-0.3347 1.2988-0.47957 0.58404-0.20919 4.0107-0.76672 3.4711-1.9762-0.45476-1.0639-4.6414 0.80401-5.4297 1.0481 1.0406-0.39135 2.7615-1.0645 2.9459-2.2603-1.5942 0.21867-3.1593 0.9724-4.3685 2.0684 0.43657-0.46996 0.76776-1.0427 0.83805-1.6591-4.2521 2.7165-6.736 8.193-8.7461 13.505-1.5784-1.5297-2.9774-2.7343-4.2324-3.4031-3.5207-1.888-7.7303-3.8579-14.338-6.311-0.20282 2.1863 1.0813 5.0934 4.7814 7.0266-0.80167-0.10732-2.2677 0.13214-3.4402 0.41292 0.47749 2.5047 2.0369 4.5682 6.2586 5.5661-1.9293 0.12733-2.9264 0.56637-3.8301 1.5126 0.87872 1.742 3.023 3.7921 6.8802 3.3713-4.2885 1.8484-1.7486 5.2714 1.7409 4.7609-5.9529 6.1487-15.338 5.6968-20.728 0.55402 14.071 19.174 44.659 11.34 49.218-7.1288 3.4152 0.029104 5.4229-1.183 6.6678-2.5194-1.9677 0.33392-4.8196-0.011174-6.3319-0.64095z"/>
<path transform="translate(266 4)" d="m40.869 0c8.3432 0 15.131 6.7878 15.131 15.131v25.738c0 8.3432-6.7878 15.131-15.131 15.131h-25.738c-8.3432 0-15.131-6.7878-15.131-15.131v-25.738c0-8.3432 6.7878-15.131 15.131-15.131h25.738zm10.607 40.869v-25.738c0-5.8487-4.7582-10.607-10.607-10.607h-25.738c-5.8487 0-10.607 4.7582-10.607 10.607v25.738c0 5.8487 4.7582 10.607 10.607 10.607h25.738c5.8487 0 10.607-4.7582 10.607-10.607zm-10.943-14.822c0.49208 3.3179-0.33753 6.6288-2.3358 9.3227-1.9982 2.694-4.9258 4.4486-8.2438 4.9407-0.62431 0.092641-1.2486 0.13836-1.8685 0.13836-2.6739 0-5.2672-0.85181-7.4542-2.474-2.694-1.9983-4.4486-4.9259-4.9407-8.2438-0.49208-3.3178 0.33753-6.6288 2.3357-9.3228 1.9982-2.694 4.9258-4.4486 8.2438-4.9407 1.2223-0.18123 2.4616-0.18123 3.684 0 2.6847 0.39802 5.1181 1.623 7.0373 3.5421 1.9192 1.9192 3.1441 4.3526 3.5422 7.0374zm-11.243 9.7881c4.3816-0.64969 7.4175-4.7429 6.7678-9.1243-0.52281-3.5254-3.2426-6.2451-6.7679-6.7678-0.39091-0.058078-0.78466-0.087062-1.1783-0.087062-0.39364 0-0.78728 0.028984-1.1782 0.086953-2.1225 0.31478-3.9954 1.4372-5.2737 3.1606-1.2783 1.7234-1.8088 3.8415-1.4941 5.9639 0.31467 2.1224 1.4371 3.9954 3.1605 5.2736s3.8415 1.8093 5.9639 1.4941zm14.466-23.59c0.4212 0.4212 0.66259 1.0043 0.66259 1.5996 0 0.59522-0.24139 1.1783-0.66259 1.5996-0.42131 0.42131-1.0044 0.66259-1.5996 0.66259-0.59522 0-1.1783-0.24139-1.5996-0.66259-0.4212-0.42131-0.66259-1.0034-0.66259-1.5996s0.24139-1.1783 0.66259-1.5996c0.42131-0.42131 1.0044-0.66259 1.5996-0.66259 0.59522 0 1.1783 0.24139 1.5996 0.66259z"/>
</g>
</svg>
