<svg xmlns="http://www.w3.org/2000/svg" xmlns:xlink="http://www.w3.org/1999/xlink" width="714" height="111" viewBox="0 0 714 111">
  <defs>
    <path id="how_it_works-a" d="M11.2116788,0 L1.40145985,0 C0.630656934,0 0,0.626470588 0,1.39215686 L0,11.1372549 C0,11.9029412 0.630656934,12.5294118 1.40145985,12.5294118 L11.2116788,12.5294118 C11.9824818,12.5294118 12.6131387,11.9029412 12.6131387,11.1372549 L12.6131387,1.39215686 C12.6131387,0.626470588 11.9824818,0 11.2116788,0 Z M5.40262774,9.25088235 C5.12934307,9.52235294 4.68788321,9.52235294 4.41459854,9.25088235 L1.8989781,6.75196078 C1.76776455,6.62191139 1.69402469,6.44535052 1.69402469,6.26122549 C1.69402469,6.07710046 1.76776455,5.90053959 1.8989781,5.7704902 C2.17226277,5.49901961 2.61372263,5.49901961 2.8870073,5.7704902 L4.90510949,7.77519608 L9.72613139,2.98617647 C9.99941606,2.71470588 10.4408759,2.71470588 10.7141606,2.98617647 C10.9874453,3.25764706 10.9874453,3.69617647 10.7141606,3.96764706 L5.40262774,9.25088235 Z"/>
    <path id="how_it_works-b" d="M11.2116788,0 L1.40145985,0 C0.630656934,0 0,0.626470588 0,1.39215686 L0,11.1372549 C0,11.9029412 0.630656934,12.5294118 1.40145985,12.5294118 L11.2116788,12.5294118 C11.9824818,12.5294118 12.6131387,11.9029412 12.6131387,11.1372549 L12.6131387,1.39215686 C12.6131387,0.626470588 11.9824818,0 11.2116788,0 Z M5.40262774,9.25088235 C5.12934307,9.52235294 4.68788321,9.52235294 4.41459854,9.25088235 L1.8989781,6.75196078 C1.76776455,6.62191139 1.69402469,6.44535052 1.69402469,6.26122549 C1.69402469,6.07710046 1.76776455,5.90053959 1.8989781,5.7704902 C2.17226277,5.49901961 2.61372263,5.49901961 2.8870073,5.7704902 L4.90510949,7.77519608 L9.72613139,2.98617647 C9.99941606,2.71470588 10.4408759,2.71470588 10.7141606,2.98617647 C10.9874453,3.25764706 10.9874453,3.69617647 10.7141606,3.96764706 L5.40262774,9.25088235 Z"/>
    <rect id="how_it_works-d" width="137.343" height="38.98" x="0" y="0" rx="19.49"/>
    <filter id="how_it_works-c" width="124%" height="184.7%" x="-12%" y="-34.6%" filterUnits="objectBoundingBox">
      <feOffset dy="3" in="SourceAlpha" result="shadowOffsetOuter1"/>
      <feGaussianBlur in="shadowOffsetOuter1" result="shadowBlurOuter1" stdDeviation="5"/>
      <feColorMatrix in="shadowBlurOuter1" values="0 0 0 0 0.203921569   0 0 0 0 0.28627451   0 0 0 0 0.368627451  0 0 0 0.271144701 0"/>
    </filter>
    <path id="how_it_works-e" d="M10.3764704,1.72941174 C5.60329402,1.72941174 1.72941174,5.60329402 1.72941174,10.3764704 C1.72941174,15.1496468 5.60329402,19.0235291 10.3764704,19.0235291 C15.1496468,19.0235291 19.0235291,15.1496468 19.0235291,10.3764704 C19.0235291,5.60329402 15.1496468,1.72941174 10.3764704,1.72941174 Z M10.3764704,4.32352934 C11.8118822,4.32352934 12.970588,5.4822352 12.970588,6.91764694 C12.970588,8.35305868 11.8118822,9.51176454 10.3764704,9.51176454 C8.94105867,9.51176454 7.78235281,8.35305868 7.78235281,6.91764694 C7.78235281,5.4822352 8.94105867,4.32352934 10.3764704,4.32352934 Z M10.3764704,16.6023527 C8.21470574,16.6023527 6.30370578,15.4955291 5.18823521,13.8179998 C5.21417638,12.0972351 8.64705868,11.1547057 10.3764704,11.1547057 C12.0972351,11.1547057 15.5387644,12.0972351 15.5647056,13.8179998 C14.449235,15.4955291 12.5382351,16.6023527 10.3764704,16.6023527 Z"/>
    <path id="how_it_works-g" d="M10.3764704,1.72941174 C5.60329402,1.72941174 1.72941174,5.60329402 1.72941174,10.3764704 C1.72941174,15.1496468 5.60329402,19.0235291 10.3764704,19.0235291 C15.1496468,19.0235291 19.0235291,15.1496468 19.0235291,10.3764704 C19.0235291,5.60329402 15.1496468,1.72941174 10.3764704,1.72941174 Z M10.3764704,4.32352934 C11.8118822,4.32352934 12.970588,5.4822352 12.970588,6.91764694 C12.970588,8.35305868 11.8118822,9.51176454 10.3764704,9.51176454 C8.94105867,9.51176454 7.78235281,8.35305868 7.78235281,6.91764694 C7.78235281,5.4822352 8.94105867,4.32352934 10.3764704,4.32352934 Z M10.3764704,16.6023527 C8.21470574,16.6023527 6.30370578,15.4955291 5.18823521,13.8179998 C5.21417638,12.0972351 8.64705868,11.1547057 10.3764704,11.1547057 C12.0972351,11.1547057 15.5387644,12.0972351 15.5647056,13.8179998 C14.449235,15.4955291 12.5382351,16.6023527 10.3764704,16.6023527 Z"/>
    <rect id="how_it_works-j" width="164.044" height="38.711" x="0" y="0" rx="2.8"/>
    <filter id="how_it_works-i" width="120.1%" height="185.2%" x="-10.1%" y="-34.9%" filterUnits="objectBoundingBox">
      <feOffset dy="3" in="SourceAlpha" result="shadowOffsetOuter1"/>
      <feGaussianBlur in="shadowOffsetOuter1" result="shadowBlurOuter1" stdDeviation="5"/>
      <feColorMatrix in="shadowBlurOuter1" values="0 0 0 0 0.203921569   0 0 0 0 0.28627451   0 0 0 0 0.368627451  0 0 0 0.271144701 0"/>
    </filter>
    <ellipse id="how_it_works-k" cx="13.833" cy="13.819" rx="13.833" ry="13.819"/>
    <path id="how_it_works-m" d="M6.42697569,12.3202659 C3.02571511,12.3202659 0.268448616,9.56228043 0.268448616,6.16013295 C0.268448616,2.75798546 3.02571511,0 6.42697569,0 C9.82823628,0 12.5855028,2.75798546 12.5855028,6.16013295 C12.5855028,9.56228043 9.82823628,12.3202659 6.42697569,12.3202659 Z M6.16013295,13.4399984 L6.89910267,13.4399984 C10.3012502,13.4399984 13.0592356,16.1979839 13.0592356,19.6001313 C13.0592356,23.0022788 10.3012502,25.7602643 6.89910267,25.7602643 L6.16013295,25.7602643 C2.75798546,25.7602643 4.16642903e-16,23.0022788 0,19.6001313 C-4.16642903e-16,16.1979839 2.75798546,13.4399984 6.16013295,13.4399984 Z"/>
    <path id="how_it_works-o" d="M9.8,0 L103.718248,3.55271368e-15 C109.130639,2.55847366e-15 113.518248,4.38760945 113.518248,9.8 L113.518248,9.8 C113.518248,15.2123905 109.130639,19.6 103.718248,19.6 L9.8,19.6 C4.38760945,19.6 6.62826676e-16,15.2123905 0,9.8 L0,9.8 C-6.62826676e-16,4.38760945 4.38760945,9.94240014e-16 9.8,0 Z"/>
    <filter id="how_it_works-n" width="111.5%" height="166.3%" x="-5.7%" y="-28.1%" filterUnits="objectBoundingBox">
      <feOffset dy="1" in="SourceAlpha" result="shadowOffsetOuter1"/>
      <feGaussianBlur in="shadowOffsetOuter1" result="shadowBlurOuter1" stdDeviation="2"/>
      <feComposite in="shadowBlurOuter1" in2="SourceAlpha" operator="out" result="shadowBlurOuter1"/>
      <feColorMatrix in="shadowBlurOuter1" values="0 0 0 0 0.203921569   0 0 0 0 0.28627451   0 0 0 0 0.368627451  0 0 0 0.120216259 0"/>
    </filter>
    <path id="how_it_works-p" d="M7.92791988,7.04174496 L7.46660601,7.04174496 L7.30310236,6.88424496 C8.00383229,6.0675783 8.36587609,4.95341163 8.16733594,3.76924496 C7.89288338,2.1475783 6.53813886,0.852578298 4.90310236,0.654244965 C2.43302937,0.350911631 0.354197253,2.4275783 0.657846889,4.8950783 C0.856387034,6.52841163 2.1527374,7.88174496 3.77609506,8.15591163 C4.96149652,8.35424496 6.07682499,7.9925783 6.89434324,7.2925783 L7.05200747,7.45591163 L7.05200747,7.91674496 L9.5337593,10.3959116 C9.77317536,10.6350783 10.1644162,10.6350783 10.4038323,10.3959116 C10.6432483,10.156745 10.6432483,9.76591163 10.4038323,9.52674496 L7.92791988,7.04174496 Z M4.42427025,7.04174496 C2.97025565,7.04174496 1.79653302,5.86924496 1.79653302,4.41674496 C1.79653302,2.96424496 2.97025565,1.79174496 4.42427025,1.79174496 C5.87828484,1.79174496 7.05200747,2.96424496 7.05200747,4.41674496 C7.05200747,5.86924496 5.87828484,7.04174496 4.42427025,7.04174496 Z"/>
    <path id="how_it_works-q" d="M10.605683,0.375786396 C4.94993896,0.375786396 0.359769877,5.02699282 0.359769877,10.7579436 C0.359769877,16.4888944 4.94993896,21.1401008 10.605683,21.1401008 C16.2614271,21.1401008 20.8515961,16.4888944 20.8515961,10.7579436 C20.8515961,5.02699282 16.2614271,0.375786396 10.605683,0.375786396 Z M10.605683,3.49043356 C12.3065046,3.49043356 13.679457,4.88164262 13.679457,6.60508072 C13.679457,8.32851881 12.3065046,9.71972788 10.605683,9.71972788 C8.90486143,9.71972788 7.53190907,8.32851881 7.53190907,6.60508072 C7.53190907,4.88164262 8.90486143,3.49043356 10.605683,3.49043356 Z M10.605683,18.2330968 C8.04420473,18.2330968 5.77985792,16.9041807 4.45813513,14.8900422 C4.48887287,12.8239929 8.55650038,11.6923377 10.605683,11.6923377 C12.6446197,11.6923377 16.7224932,12.8239929 16.7532309,14.8900422 C15.4315081,16.9041807 13.1671613,18.2330968 10.605683,18.2330968 Z"/>
    <path id="how_it_works-r" d="M10.605683,0.375786396 C4.94993896,0.375786396 0.359769877,5.02699282 0.359769877,10.7579436 C0.359769877,16.4888944 4.94993896,21.1401008 10.605683,21.1401008 C16.2614271,21.1401008 20.8515961,16.4888944 20.8515961,10.7579436 C20.8515961,5.02699282 16.2614271,0.375786396 10.605683,0.375786396 Z M10.605683,3.49043356 C12.3065046,3.49043356 13.679457,4.88164262 13.679457,6.60508072 C13.679457,8.32851881 12.3065046,9.71972788 10.605683,9.71972788 C8.90486143,9.71972788 7.53190907,8.32851881 7.53190907,6.60508072 C7.53190907,4.88164262 8.90486143,3.49043356 10.605683,3.49043356 Z M10.605683,18.2330968 C8.04420473,18.2330968 5.77985792,16.9041807 4.45813513,14.8900422 C4.48887287,12.8239929 8.55650038,11.6923377 10.605683,11.6923377 C12.6446197,11.6923377 16.7224932,12.8239929 16.7532309,14.8900422 C15.4315081,16.9041807 13.1671613,18.2330968 10.605683,18.2330968 Z"/>
    <rect id="how_it_works-t" width="92.4" height="82.942" x="0" y="0" rx="4.2"/>
    <filter id="how_it_works-s" width="135.7%" height="139.8%" x="-17.9%" y="-16.3%" filterUnits="objectBoundingBox">
      <feOffset dy="3" in="SourceAlpha" result="shadowOffsetOuter1"/>
      <feGaussianBlur in="shadowOffsetOuter1" result="shadowBlurOuter1" stdDeviation="5"/>
      <feColorMatrix in="shadowBlurOuter1" values="0 0 0 0 0.203921569   0 0 0 0 0.28627451   0 0 0 0 0.368627451  0 0 0 0.271144701 0"/>
    </filter>
    <ellipse id="how_it_works-u" cx="16.582" cy="16.651" rx="16.582" ry="16.651"/>
    <path id="how_it_works-w" d="M7.70433711,14.8455378 C3.62707598,14.8455378 0.321802779,11.522251 0.321802779,7.4227689 C0.321802779,3.32328683 3.62707598,0 7.70433711,0 C11.7815982,0 15.0868714,3.32328683 15.0868714,7.4227689 C15.0868714,11.522251 11.7815982,14.8455378 7.70433711,14.8455378 Z M7.4227689,16.1947807 L8.2319898,16.1947807 C12.3314719,16.1947807 15.6547587,19.5180675 15.6547587,23.6175496 C15.6547587,27.7170316 12.3314719,31.0403185 8.2319898,31.0403185 L7.4227689,31.0403185 C3.32328683,31.0403185 5.02041759e-16,27.7170316 0,23.6175496 C-5.02041759e-16,19.5180675 3.32328683,16.1947807 7.4227689,16.1947807 Z"/>
    <path id="how_it_works-x" d="M9.92727273,0 L1.65454545,0 C0.744545455,0 0,0.773188406 0,1.71819646 L0,15.4637681 L5.79090909,12.8864734 L11.5818182,15.4637681 L11.5818182,1.71819646 C11.5818182,0.773188406 10.8372727,0 9.92727273,0 Z"/>
    <path id="how_it_works-y" d="M9.33333333,0 L1.55555556,0 C0.7,0 0,0.658967391 0,1.46437198 L0,13.1793478 L5.44444444,10.9827899 L10.8888889,13.1793478 L10.8888889,1.46437198 C10.8888889,0.658967391 10.1888889,0 9.33333333,0 Z"/>
    <rect id="how_it_works-A" width="22.4" height="22.493" x="0" y="0" rx="11.2"/>
    <filter id="how_it_works-z" width="198.2%" height="197.8%" x="-49.1%" y="-44.5%" filterUnits="objectBoundingBox">
      <feOffset dy="1" in="SourceAlpha" result="shadowOffsetOuter1"/>
      <feGaussianBlur in="shadowOffsetOuter1" result="shadowBlurOuter1" stdDeviation="3.5"/>
      <feColorMatrix in="shadowBlurOuter1" values="0 0 0 0 0.203921569   0 0 0 0 0.28627451   0 0 0 0 0.368627451  0 0 0 0.305197011 0"/>
    </filter>
    <path id="how_it_works-B" d="M8.70633911,6.91557971 L7.55586854,6.78422677 C7.27957443,6.75252089 7.00780972,6.84763854 6.81304502,7.04240324 L5.97963327,7.87581499 C4.69780976,7.22357971 3.64698625,6.17728561 2.99475097,4.89093269 L3.83269213,4.05299153 C4.02745683,3.85822682 4.12257448,3.58646212 4.0908686,3.31016801 L3.95951566,2.16875626 C3.90516272,1.71128568 3.52016272,1.36705039 3.05816273,1.36705039 L2.27457451,1.36705039 C1.76275099,1.36705039 1.33698629,1.79281509 1.36869217,2.30463861 C1.60875099,6.1727562 4.70233918,9.26181497 8.56592734,9.50187379 C9.07775087,9.53357967 9.50351556,9.10781497 9.50351556,8.59599145 L9.50351556,7.81240323 C9.50804498,7.35493265 9.16380969,6.96993265 8.70633911,6.91557971 Z"/>
    <path id="how_it_works-E" d="M23.5741935,0 L1.62580645,0 C0.731612903,0 0.00812903226,0.759130435 0.00812903226,1.68695652 L0,16.8695652 L3.2516129,13.4956522 L23.5741935,13.4956522 C24.4683871,13.4956522 25.2,12.7365217 25.2,11.8086957 L25.2,1.68695652 C25.2,0.759130435 24.4683871,0 23.5741935,0 Z"/>
    <filter id="how_it_works-D" width="195.2%" height="233.5%" x="-47.6%" y="-53.4%" filterUnits="objectBoundingBox">
      <feMorphology in="SourceAlpha" radius=".5" result="shadowSpreadOuter1"/>
      <feOffset dy="3" in="shadowSpreadOuter1" result="shadowOffsetOuter1"/>
      <feGaussianBlur in="shadowOffsetOuter1" result="shadowBlurOuter1" stdDeviation="4"/>
      <feColorMatrix in="shadowBlurOuter1" values="0 0 0 0 0.149019608   0 0 0 0 0.188235294   0 0 0 0 0.549019608  0 0 0 0.204115716 0"/>
    </filter>
  </defs>
  <g fill="none" fill-rule="evenodd">
    <g transform="translate(14 20)">
      <rect width="103.708" height="6.961" x="19.62" y="1.392" fill="#A3ACBC" rx="3.48"/>
      <path fill="#DBDEE3" d="M2.79999995 0L8.41167888 0C9.95807615-2.84068571e-16 11.2116788 1.25360268 11.2116788 2.79999995L11.2116788 8.33725495C11.2116788 9.88365222 9.95807615 11.1372549 8.41167888 11.1372549L2.79999995 11.1372549C1.25360268 11.1372549 6.33468257e-16 9.88365222 4.4408921e-16 8.33725495L4.4408921e-16 2.79999995C2.54710163e-16 1.25360268 1.25360268 2.84068571e-16 2.79999995 0zM23.1008301 2.78431373L72.19844 2.78431373C74.1206075 2.78431373 75.6788321 4.34253837 75.6788321 6.26470588L75.6788321 6.26470588C75.6788321 8.18687339 74.1206075 9.74509804 72.19844 9.74509804L23.1008301 9.74509804C21.1786626 9.74509804 19.620438 8.18687339 19.620438 6.26470588L19.620438 6.26470588C19.620438 4.34253837 21.1786626 2.78431373 23.1008301 2.78431373z" transform="translate(0 19.49)"/>
      <g fill="#DBDEE3" transform="translate(0 59.863)">
        <path d="M2.79999995,0 L8.41167888,0 C9.95807615,-2.84068571e-16 11.2116788,1.25360268 11.2116788,2.79999995 L11.2116788,8.33725495 C11.2116788,9.88365222 9.95807615,11.1372549 8.41167888,11.1372549 L2.79999995,11.1372549 C1.25360268,11.1372549 1.89379047e-16,9.88365222 0,8.33725495 L0,2.79999995 C-1.89379047e-16,1.25360268 1.25360268,2.84068571e-16 2.79999995,0 Z"/>
        <rect width="92.496" height="6.961" x="19.62" y="2.784" rx="3.48"/>
      </g>
      <path fill="#A3ACBC" d="M23.1008301,40.372549 L86.2130385,40.372549 C88.135206,40.372549 89.6934307,41.9307737 89.6934307,43.8529412 L89.6934307,43.8529412 C89.6934307,45.7751087 88.135206,47.3333333 86.2130385,47.3333333 L23.1008301,47.3333333 C21.1786626,47.3333333 19.620438,45.7751087 19.620438,43.8529412 L19.620438,43.8529412 C19.620438,41.9307737 21.1786626,40.372549 23.1008301,40.372549 Z"/>
      <use fill="#D9475C" fill-rule="nonzero" xlink:href="#how_it_works-a"/>
      <use fill="#D9475C" fill-rule="nonzero" transform="translate(0 37.588)" xlink:href="#how_it_works-b"/>
      <g transform="translate(54.657 16.706)">
        <use fill="#000" filter="url(#how_it_works-c)" xlink:href="#how_it_works-d"/>
        <use fill="#FFF" xlink:href="#how_it_works-d"/>
        <g transform="translate(21.022 23.667)">
          <path fill="#DBDEE3" d="M1.04411765,1.04411765 L91.8129145,1.04411765 C92.3895648,1.04411765 92.8570322,1.51158504 92.8570322,2.08823529 L92.8570322,2.08823529 C92.8570322,2.66488555 92.3895648,3.13235294 91.8129145,3.13235294 L1.04411765,3.13235294 C0.467467394,3.13235294 7.06192887e-17,2.66488555 0,2.08823529 L0,2.08823529 C-7.06192887e-17,1.51158504 0.467467394,1.04411765 1.04411765,1.04411765 Z"/>
          <path fill="#0E68C2" d="M22.1570193,1.04411765 L60.1832973,1.04411765 C60.7599475,1.04411765 61.2274149,1.51158504 61.2274149,2.08823529 L61.2274149,2.08823529 C61.2274149,2.66488555 60.7599475,3.13235294 60.1832973,3.13235294 L22.1570193,3.13235294 C21.5803691,3.13235294 21.1129017,2.66488555 21.1129017,2.08823529 L21.1129017,2.08823529 C21.1129017,1.51158504 21.5803691,1.04411765 22.1570193,1.04411765 Z"/>
          <ellipse cx="21.113" cy="2.088" fill="#FFF" stroke="#0E68C2" stroke-width="1.4" rx="2.111" ry="2.088"/>
          <ellipse cx="62.283" cy="2.088" fill="#FFF" stroke="#0E68C2" stroke-width="1.4" rx="2.111" ry="2.088"/>
        </g>
        <g transform="translate(21.022 11.137)">
          <path fill="#DBDEE3" d="M1.04411765,1.04411765 L91.8129145,1.04411765 C92.3895648,1.04411765 92.8570322,1.51158504 92.8570322,2.08823529 L92.8570322,2.08823529 C92.8570322,2.66488555 92.3895648,3.13235294 91.8129145,3.13235294 L1.04411765,3.13235294 C0.467467394,3.13235294 7.06192887e-17,2.66488555 0,2.08823529 L0,2.08823529 C-7.06192887e-17,1.51158504 0.467467394,1.04411765 1.04411765,1.04411765 Z"/>
          <rect width="29.558" height="2.088" x="2.111" y="1.044" fill="#0E68C2" rx="1.044"/>
          <ellipse cx="2.111" cy="2.088" fill="#FFF" stroke="#0E68C2" stroke-width="1.4" rx="2.111" ry="2.088"/>
          <ellipse cx="31.669" cy="2.088" fill="#FFF" stroke="#0E68C2" stroke-width="1.4" rx="2.111" ry="2.088"/>
        </g>
      </g>
    </g>
    <g transform="translate(233 10)">
      <g transform="translate(0 4.2)">
        <g transform="translate(18.227 63.655)">
          <g opacity=".247">
            <mask id="how_it_works-f" fill="#fff">
              <use xlink:href="#how_it_works-e"/>
            </mask>
            <g fill="#5E6C84" mask="url(#how_it_works-f)">
              <rect width="21.06" height="21.06"/>
            </g>
          </g>
          <path fill="#D8DBE1" d="M2.71777047 0L64.0084546-4.88498131e-15C65.5094378-5.16070745e-15 66.7262251 1.21678729 66.7262251 2.71777047L66.7262251 2.71777047C66.7262251 4.21875366 65.5094378 5.43554094 64.0084546 5.43554094L2.71777047 5.43554094C1.21678729 5.43554094 1.83817425e-16 4.21875366 0 2.71777047L0 2.71777047C-1.83817425e-16 1.21678729 1.21678729-1.68363072e-16 2.71777047-4.4408921e-16zM1.5530117 7.76505849L47.2467648 7.76505849C48.1044695 7.76505849 48.7997765 8.46036551 48.7997765 9.31807019L48.7997765 9.31807019C48.7997765 10.1757749 48.1044695 10.8710819 47.2467648 10.8710819L1.5530117 10.8710819C.695307021 10.8710819 1.05038529e-16 10.1757749 0 9.31807019L0 9.31807019C-1.05038529e-16 8.46036551.695307021 7.76505849 1.5530117 7.76505849z" transform="translate(29.44 5.125)"/>
        </g>
        <g transform="translate(18.227 .059)">
          <g opacity=".247">
            <mask id="how_it_works-h" fill="#fff">
              <use xlink:href="#how_it_works-g"/>
            </mask>
            <g fill="#5E6C84" mask="url(#how_it_works-h)">
              <rect width="21.06" height="21.06"/>
            </g>
          </g>
          <path fill="#D8DBE1" d="M2.71777047 0L64.0084546-1.33226763e-15C65.5094378-1.60799377e-15 66.7262251 1.21678729 66.7262251 2.71777047L66.7262251 2.71777047C66.7262251 4.21875366 65.5094378 5.43554094 64.0084546 5.43554094L2.71777047 5.43554094C1.21678729 5.43554094 1.83817425e-16 4.21875366 0 2.71777047L0 2.71777047C-1.83817425e-16 1.21678729 1.21678729 7.19815348e-16 2.71777047 4.4408921e-16zM1.5530117 7.76505849L47.2467648 7.76505849C48.1044695 7.76505849 48.7997765 8.46036551 48.7997765 9.31807019L48.7997765 9.31807019C48.7997765 10.1757749 48.1044695 10.8710819 47.2467648 10.8710819L1.5530117 10.8710819C.695307021 10.8710819 1.05038529e-16 10.1757749 0 9.31807019L0 9.31807019C-1.05038529e-16 8.46036551.695307021 7.76505849 1.5530117 7.76505849z" transform="translate(29.44 5.125)"/>
        </g>
        <g transform="translate(0 21.257)">
          <use fill="#000" filter="url(#how_it_works-i)" xlink:href="#how_it_works-j"/>
          <use fill="#FFF" xlink:href="#how_it_works-j"/>
          <g transform="translate(8.409 5.6)">
            <mask id="how_it_works-l" fill="#fff">
              <use xlink:href="#how_it_works-k"/>
            </mask>
            <use fill="#EEF3F9" xlink:href="#how_it_works-k"/>
            <g mask="url(#how_it_works-l)">
              <use fill="#FFF" stroke="#14202B" stroke-linecap="round" stroke-linejoin="round" stroke-width=".84" transform="translate(7.39 6.815)" xlink:href="#how_it_works-m"/>
            </g>
            <ellipse cx="14.582" cy="12.891" fill="#F5CAD0" mask="url(#how_it_works-l)" rx="5.596" ry="5.598" style="mix-blend-mode:multiply"/>
          </g>
          <g transform="translate(45.477 12.947)">
            <rect width="78.286" height="6.363" fill="#A3ACBC" rx="3.181"/>
            <path fill="#CCD3E1" d="M1.81790667,9.08953335 L55.4360336,9.08953335 C56.4400357,9.08953335 57.2539402,9.90343789 57.2539402,10.90744 L57.2539402,10.90744 C57.2539402,11.9114421 56.4400357,12.7253467 55.4360336,12.7253467 L1.81790667,12.7253467 C0.813904539,12.7253467 1.229548e-16,11.9114421 0,10.90744 L0,10.90744 C-1.229548e-16,9.90343789 0.813904539,9.08953335 1.81790667,9.08953335 Z"/>
          </g>
        </g>
      </g>
      <g transform="translate(78.482)">
        <use fill="#000" filter="url(#how_it_works-n)" xlink:href="#how_it_works-o"/>
        <path fill="#FFF" stroke="#EBEDF2" stroke-linejoin="square" stroke-width=".7" d="M9.8,0.349999994 C4.58090911,0.349999994 0.349999994,4.58090911 0.349999994,9.8 C0.349999994,15.0190909 4.58090911,19.25 9.8,19.25 L103.718248,19.25 C108.937339,19.25 113.168248,15.0190909 113.168248,9.8 C113.168248,4.58090911 108.937339,0.349999994 103.718248,0.349999994 L9.8,0.349999994 Z"/>
        <use fill="#0E68C2" fill-rule="nonzero" transform="translate(89.693 4.2)" xlink:href="#how_it_works-p"/>
        <path fill="#A3ACBC" d="M16.2291765,12.9185384 C15.8923492,12.8475629 15.6213125,12.7647594 15.4160584,12.6701254 L15.518685,11.8736266 C15.7818313,11.9998053 16.0791822,12.1102099 16.4107466,12.2048439 C16.7423109,12.2994779 17.0712389,12.3467942 17.3975404,12.3467942 C17.7659452,12.3467942 18.0514547,12.2797628 18.2540774,12.145698 C18.4567001,12.0116331 18.5580099,11.8105389 18.5580099,11.5424092 C18.5580099,11.3426264 18.5066971,11.175705 18.40407,11.0416402 C18.301443,10.9075753 18.1514518,10.794542 17.9540921,10.7025367 C17.7567323,10.6105314 17.4817485,10.5119558 17.1291324,10.4068069 C16.7712534,10.301658 16.4739025,10.1886247 16.2370708,10.0677035 C16.0002391,9.94678225 15.8094609,9.78117523 15.6647304,9.57087746 C15.52,9.36057968 15.4476358,9.09508272 15.4476358,8.77437861 C15.4476358,8.32749584 15.6199941,7.9673663 15.9647158,7.69397919 C16.3094374,7.42059208 16.7949351,7.28390058 17.4212234,7.28390058 C17.7580507,7.28390058 18.0777687,7.32070214 18.380387,7.39430636 C18.6830053,7.46791058 18.9474634,7.55728579 19.1737692,7.66243468 L19.0948257,8.45893353 C18.8001018,8.28543786 18.515908,8.15926109 18.2422359,8.08039942 C17.9685637,8.00153776 17.6843699,7.96210751 17.389646,7.96210751 C17.0475558,7.96210751 16.7752034,8.0251959 16.5725807,8.15137457 C16.3699581,8.27755323 16.2686482,8.47207576 16.2686482,8.73494798 C16.2686482,8.91370109 16.3146982,9.06090732 16.4067994,9.1765711 C16.4989006,9.29223488 16.6317875,9.39081048 16.8054641,9.47230087 C16.9791407,9.55379126 17.2212316,9.64185213 17.5317443,9.73648613 C18.1527697,9.92575413 18.6159003,10.1505065 18.92115,10.41075 C19.2263997,10.6709935 19.3790223,11.0298087 19.3790223,11.4872064 C19.3790223,11.9708912 19.1974541,12.3481072 18.8343121,12.6188656 C18.4711702,12.889624 17.9343597,13.0250012 17.2238646,13.0250012 C16.8975632,13.0250012 16.5660038,12.9895139 16.2291765,12.9185384 Z M20.8276356,12.7213853 C20.5144915,12.5400034 20.2763476,12.2942216 20.1131969,11.9840324 C19.9500462,11.6738432 19.868472,11.3294857 19.868472,10.9509497 C19.868472,10.588186 19.9434676,10.2556577 20.093461,9.95335462 C20.2434544,9.65105157 20.4618626,9.41184144 20.7486921,9.23571705 C21.0355216,9.05959266 21.3736596,8.97153179 21.7631162,8.97153179 C22.2578313,8.97153179 22.6591234,9.11610934 22.9670046,9.40526879 C23.2748858,9.69442823 23.4288241,10.093988 23.4288241,10.6039601 C23.4288241,10.7353962 23.4182984,10.861573 23.3972467,10.9824942 L20.5947523,10.9824942 C20.6421186,11.4819514 20.7947412,11.8368236 21.0526246,12.0471214 C21.310508,12.2574192 21.6420674,12.3625665 22.0473128,12.3625665 C22.4525581,12.3625665 22.8235889,12.2863347 23.1604162,12.1338688 L23.2551484,12.6937838 C22.8077996,12.8935667 22.3762461,12.9934566 21.9604749,12.9934566 C21.5183891,12.9934566 21.1407798,12.9027671 20.8276356,12.7213853 Z M22.6946495,10.4935543 C22.6946495,10.2149098 22.6157068,9.99672911 22.457819,9.83900578 C22.2999312,9.68128245 22.0631031,9.60242197 21.7473275,9.60242197 C21.4420777,9.60242197 21.2026181,9.67733942 21.0289416,9.82717659 C20.855265,9.97701375 20.7315881,10.1991374 20.6579071,10.4935543 L22.6946495,10.4935543 Z M24.1827346,12.6780116 C23.9643231,12.4677138 23.855119,12.1995881 23.855119,11.8736266 C23.855119,11.3846843 24.0866843,11.0350695 24.5498219,10.8247717 C25.0129594,10.6144739 25.5524013,10.5040692 26.1681637,10.4935543 C26.1681637,10.146563 26.1010624,9.9112959 25.9668578,9.78774595 C25.8326531,9.66419601 25.6181921,9.60242197 25.3234682,9.60242197 C25.1603175,9.60242197 24.9971692,9.62739445 24.8340185,9.67734017 C24.6708678,9.7272859 24.4945624,9.81797545 24.305097,9.94941156 L24.2024704,9.37372428 C24.3603582,9.25280306 24.5550836,9.15554179 24.7866524,9.08193757 C25.0182211,9.00833335 25.2603121,8.97153179 25.5129326,8.97153179 C25.844497,8.97153179 26.1089551,9.02936281 26.3063148,9.14502659 C26.5036746,9.26069037 26.6484029,9.45258421 26.7405041,9.72071387 C26.8326053,9.98884354 26.8786552,10.3568591 26.8786552,10.8247717 L26.8786552,11.6133844 C26.8786552,11.8236822 26.8878652,11.9827175 26.9062855,12.0904951 C26.9247057,12.1982727 26.9654928,12.2810762 27.0286479,12.3389081 C27.091803,12.39674 27.1891657,12.4256555 27.3207389,12.4256555 L27.391788,12.4256555 L27.2812671,12.9934566 L27.2260067,12.9934566 C27.0049637,12.9934566 26.8312898,12.9724272 26.7049795,12.9303676 C26.5786693,12.8883081 26.4826223,12.8278484 26.4168357,12.7489867 C26.3510492,12.670125 26.2892107,12.562349 26.2313185,12.4256555 C25.9050171,12.8041915 25.5103035,12.9934566 25.0471659,12.9934566 C24.6892869,12.9934566 24.401146,12.8883093 24.1827346,12.6780116 Z M25.7300273,12.2837052 C25.9063353,12.1890712 26.0523793,12.0628944 26.1681637,11.9051711 L26.1681637,10.9824942 C25.5997676,11.003524 25.1932126,11.0784415 24.9484866,11.2072488 C24.7037605,11.3360562 24.5813993,11.5450365 24.5813993,11.834196 C24.5813993,12.0339788 24.6353435,12.1824994 24.7432335,12.2797621 C24.8511234,12.3770249 24.9971675,12.4256555 25.1813699,12.4256555 C25.3708353,12.4256555 25.5537192,12.3783392 25.7300273,12.2837052 Z M27.9364982,9.05039306 L28.5206801,9.05039306 L28.607518,9.68916936 C28.8075092,9.44206948 28.9982874,9.26069037 29.1798584,9.14502659 C29.3614294,9.02936281 29.5522076,8.97153179 29.7521988,8.97153179 C29.8153539,8.97153179 29.8758767,8.97941784 29.9337689,8.99519017 L29.8627197,9.77591676 C29.7943017,9.76014443 29.715359,9.75225838 29.6258892,9.75225838 C29.4311609,9.75225838 29.2469612,9.79563165 29.0732847,9.88237948 C28.8996081,9.96912731 28.7732997,10.0703316 28.6943558,10.1859954 L28.6943558,12.9145954 L27.9364982,12.9145954 L27.9364982,9.05039306 Z M31.0192421,12.7332145 C30.7166238,12.5597188 30.4890056,12.321823 30.3363807,12.0195199 C30.1837559,11.7172169 30.1074446,11.3794312 30.1074446,11.0061526 C30.1074446,10.3962891 30.2798028,9.90472537 30.6245245,9.53144682 C30.9692462,9.15816827 31.4810582,8.97153179 32.1599757,8.97153179 C32.5599581,8.97153179 32.9125689,9.04776359 33.2178187,9.20022948 L33.1072978,9.82323353 C32.7862592,9.67602508 32.4652255,9.60242197 32.144187,9.60242197 C31.7231529,9.60242197 31.3994877,9.72202703 31.1731819,9.96124075 C30.946876,10.2004545 30.8337248,10.5382402 30.8337248,10.9746081 C30.8337248,11.410976 30.9429289,11.7527047 31.1613404,11.9998046 C31.3797518,12.2469045 31.7021012,12.3704526 32.1283983,12.3704526 C32.4704885,12.3704526 32.7994165,12.2915921 33.1151921,12.1338688 L33.2099243,12.7016699 C33.0941399,12.7805316 32.9349388,12.8488774 32.7323161,12.9067092 C32.5296934,12.9645411 32.3204952,12.9934566 32.1047152,12.9934566 C31.6836811,12.9934566 31.3218603,12.9067101 31.0192421,12.7332145 Z M36.8807973,9.45258555 C37.1386807,9.77328966 37.2676204,10.209651 37.2676204,10.7616827 L37.2676204,12.9145954 L36.5571289,12.9145954 L36.5571289,10.8484301 C36.5571289,10.4225771 36.4795019,10.1084495 36.3242456,9.90603786 C36.1689892,9.70362625 35.9282139,9.60242197 35.6019125,9.60242197 C35.4019213,9.60242197 35.2177216,9.64842391 35.049308,9.74042919 C34.8808943,9.83243447 34.7387974,9.96255426 34.623013,10.1307925 L34.623013,12.9145954 L33.9046271,12.9145954 L33.9046271,7 L34.623013,7 L34.623013,9.42104104 C34.7756379,9.2738326 34.9427333,9.16211358 35.1243043,9.08588064 C35.3058753,9.00964769 35.5177049,8.97153179 35.7597995,8.97153179 C36.2492517,8.97153179 36.6229139,9.13188144 36.8807973,9.45258555 Z"/>
      </g>
    </g>
    <g transform="translate(449 7)">
      <g transform="rotate(-10 145.512 7.1)">
        <rect width="80.5" height="61.155" x=".35" y=".35" fill="#FFF" stroke="#CCD3E1" stroke-opacity=".833" stroke-width=".7" rx="2.8"/>
        <g transform="translate(14 11.246)">
          <use fill="#D8DBE1" fill-rule="nonzero" transform="translate(15.4)" xlink:href="#how_it_works-q"/>
          <g opacity=".416" transform="translate(0 28.116)">
            <rect width="53.2" height="4.217" fill="#A3ACBC" rx="2.109"/>
            <rect width="37.8" height="4.217" x="7" y="7.029" fill="#CCD3E1" rx="2.109"/>
          </g>
        </g>
      </g>
      <g transform="scale(-1 1) rotate(-10 46.68 1136.75)">
        <rect width="80.5" height="61.155" x=".35" y=".35" fill="#FFF" stroke="#CCD3E1" stroke-opacity=".833" stroke-width=".7" rx="2.8"/>
        <g transform="translate(14 11.246)">
          <use fill="#D8DBE1" fill-rule="nonzero" transform="translate(15.4)" xlink:href="#how_it_works-r"/>
          <g opacity=".416" transform="translate(0 28.116)">
            <rect width="53.2" height="4.217" fill="#A3ACBC" rx="2.109"/>
            <rect width="37.8" height="4.217" x="7" y="7.029" fill="#CCD3E1" rx="2.109"/>
          </g>
        </g>
      </g>
      <g transform="translate(52.8 7.029)">
        <use fill="#000" filter="url(#how_it_works-s)" xlink:href="#how_it_works-t"/>
        <use fill="#FFF" xlink:href="#how_it_works-t"/>
        <g transform="translate(29.4 11.246)">
          <mask id="how_it_works-v" fill="#fff">
            <use xlink:href="#how_it_works-u"/>
          </mask>
          <use fill="#EEF3F9" xlink:href="#how_it_works-u"/>
          <g mask="url(#how_it_works-v)">
            <use fill="#FFF" stroke="#14202B" stroke-linecap="round" stroke-linejoin="round" stroke-width=".98" transform="translate(8.859 8.211)" xlink:href="#how_it_works-w"/>
          </g>
          <ellipse cx="17.48" cy="15.533" fill="#F5CAD0" mask="url(#how_it_works-v)" rx="6.709" ry="6.745" style="mix-blend-mode:multiply"/>
        </g>
        <g transform="translate(19.6 50.609)">
          <rect width="53.2" height="4.217" fill="#A3ACBC" rx="2.109"/>
          <rect width="37.8" height="4.217" x="7" y="7.029" fill="#CCD3E1" rx="2.109"/>
        </g>
      </g>
      <g transform="translate(62.6 2.812)">
        <use fill="#D8DBE1" fill-rule="nonzero" transform="translate(1.4)" xlink:href="#how_it_works-x"/>
        <use fill="#0E68C2" fill-rule="nonzero" xlink:href="#how_it_works-y"/>
      </g>
      <g transform="translate(41.6 74.507)">
        <use fill="#000" filter="url(#how_it_works-z)" xlink:href="#how_it_works-A"/>
        <use fill="#D9475C" xlink:href="#how_it_works-A"/>
        <g transform="translate(5.6 5.623)">
          <mask id="how_it_works-C" fill="#fff">
            <use xlink:href="#how_it_works-B"/>
          </mask>
          <g fill="#FFF" mask="url(#how_it_works-C)">
            <rect width="11.031" height="11.031"/>
          </g>
        </g>
      </g>
      <g transform="translate(129.8)">
        <g fill-rule="nonzero">
          <use fill="#000" filter="url(#how_it_works-D)" xlink:href="#how_it_works-E"/>
          <use fill="#FFF" xlink:href="#how_it_works-E"/>
        </g>
        <g fill="#FFF" fill-opacity=".576" transform="translate(8.4 5.623)">
          <ellipse cx="1.279" cy="1.289" rx="1.279" ry="1.289"/>
          <ellipse cx="4.69" cy="1.289" rx="1.279" ry="1.289"/>
          <ellipse cx="8.101" cy="1.289" rx="1.279" ry="1.289"/>
        </g>
      </g>
    </g>
  </g>
</svg>
