<?xml version="1.0" encoding="UTF-8"?>
<svg width="160px" height="57px" viewBox="0 0 160 57" version="1.1" xmlns="http://www.w3.org/2000/svg" xmlns:xlink="http://www.w3.org/1999/xlink">
    <!-- Generator: Sketch 52.6 (67491) - http://www.bohemiancoding.com/sketch -->
    <title>js_logo</title>
    <desc>Created with Sketch.</desc>
    <defs>
        <polygon id="path-1" points="3.35106383e-05 0.0742591383 12.2469989 0.0742591383 12.2469989 21.2836177 3.35106383e-05 21.2836177"></polygon>
        <polygon id="path-3" points="33.5539999 0.519744522 38.6142683 0.519744522 38.6142683 7.29044398 33.5539999 7.29044398"></polygon>
    </defs>
    <g id="Page-1" stroke="none" stroke-width="1" fill="none" fill-rule="evenodd">
        <g id="MS-SEM-Page" transform="translate(-100.000000, -212.000000)">
            <g id="js_logo" transform="translate(100.000000, 212.000000)">
                <path d="M4,0 L156,0 C158.209139,-4.05812251e-16 160,1.790861 160,4 L160,53 C160,55.209139 158.209139,57 156,57 L4,57 C1.790861,57 2.705415e-16,55.209139 0,53 L0,4 C-2.705415e-16,1.790861 1.790861,4.05812251e-16 4,0 Z" id="Rectangle-27" fill="#FFFFFF"></path>
                <g id="Group-Copy-8" transform="translate(29.000000, 15.000000)">
                    <g id="Group-3">
                        <mask id="mask-2" fill="white">
                            <use xlink:href="#path-1"></use>
                        </mask>
                        <g id="Clip-2"></g>
                        <path d="M8.84483138,0.0742104969 L12.2469989,0.0742104969 C11.1775069,4.25882644 9.76637394,9.32449949 8.61779681,13.6813058 C7.81689255,16.7205799 7.24587128,19.9811722 4.61126489,20.9968038 C3.20365053,21.539317 1.03299894,21.294651 3.35106383e-05,20.411324 C0.39797234,19.5283212 1.0073633,18.8502607 1.43629947,17.9970913 C4.20344043,19.1403253 4.52430479,15.9924188 5.06516649,13.9736404 C6.26719309,9.48663734 7.86012128,3.96243843 8.84483138,0.0742104969" id="Fill-1" fill="#D52741" mask="url(#mask-2)"></path>
                    </g>
                    <path d="M91.5410037,1 C91.0412753,2.9927689 90.5126773,4.95799851 89.9411973,6.88216363 C91.3416188,6.11090063 93.2640539,5.98428509 94.2836013,7.02914846 C95.8570706,8.64239665 94.4238967,11.7043091 93.9027271,13.7198916 C93.7127966,14.4533492 93.0241505,17 93.0241505,17 L89.7840192,17 C89.7840192,17 90.5143656,14.4750222 90.8552277,13.2051188 C91.0345222,12.5387984 91.2225956,11.7541732 91.4652003,10.8522208 C91.7181034,9.90904091 91.9428124,8.95396539 91.2362706,8.7936183 C90.480769,8.62202736 89.3322377,9.72213226 89.0269982,10.337285 C88.8088734,10.7788913 88.7136549,11.4250053 88.5703206,11.9552588 C88.1563564,13.4868669 87.6621992,15.3715971 87.275585,16.9925041 L84,16.9925041 C85.4530955,11.8270138 86.8229593,6.39623372 88.2655876,1.22047725 C88.2625487,1.09500239 88.3223135,1.03014656 88.4182073,1 L91.5410037,1 Z" id="Fill-4" fill="#D52741"></path>
                    <path d="M85.1695415,2 C84.842376,3.51767118 84.3819022,4.90797526 84.0373414,6.4091448 C84.5413034,6.57752571 85.3702565,6.43397738 86,6.4813996 C85.8278868,7.25649652 85.5410316,7.92104842 85.3958477,8.72241981 L83.4338581,8.72241981 C82.6079157,11.3530712 81.9127726,14.290365 81.1699596,17 L78,17 C78.7264212,14.322407 79.460871,11.4708257 80.1887976,8.79483482 C79.8604612,8.62741517 79.2083046,8.76952161 78.7548558,8.72241981 C78.957578,7.97696177 79.1763574,7.2467237 79.3586736,6.4813996 L80.7926154,6.4813996 C81.2256581,5.01739883 81.6665621,3.55948605 82.0000836,2 L85.1695415,2 Z" id="Fill-6" fill="#D52741"></path>
                    <path d="M99.5139963,2.064063 C100.688566,1.81801322 102.171834,2.26883171 101.983755,3.62292386 C101.725212,5.48802849 98,5.45656758 98,3.54072541 C98,2.6178114 98.6940401,2.2357341 99.5139963,2.064063" id="Fill-8" fill="#D52741"></path>
                    <path d="M67,6.80360365 C66.847019,7.74129175 66.5206154,8.51450885 66.3305431,9.41620425 C65.5562414,9.14751092 64.6892939,8.33047661 63.4295082,8.49854687 C63.0299112,8.55175347 62.5564612,8.85956931 62.5373386,9.20462977 C62.5070061,9.75077988 63.4113747,10.0402864 63.8759227,10.3340181 C64.9924535,11.0408835 65.9571572,12.0073657 65.7354336,13.7234351 C65.5240956,15.3589121 63.9252129,16.7763986 62.0912538,16.9712286 C60.7129407,17.1173903 59.3450133,16.6834435 58,16.1945687 C58.2601337,15.3589121 58.4376774,14.4446975 58.7438044,13.6530146 C58.8226028,13.450673 59.1668101,13.7627141 59.4132613,13.8644326 C60.1150288,14.154878 62.6649327,14.8681595 62.8348933,13.5822811 C62.992655,12.3873235 60.7630552,12.089836 60.082883,11.181568 C59.8306621,10.845271 59.6654822,10.3700108 59.6366334,9.98113316 C59.3891931,6.67637727 63.8910889,4.8476351 67,6.80360365" id="Fill-10" fill="#D52741"></path>
                    <path d="M41.3506982,9.34386085 C40.8893838,9.91832782 40.2861793,11.2720288 40.1905577,12.3144641 C40.1004197,13.3007696 40.2669864,14.1955554 40.8091851,14.3199958 C41.1320366,14.3937382 41.7878501,14.0296348 41.9693256,13.8742489 C42.4854767,13.4313003 43.282495,11.9689609 43.5155513,11.1261899 C43.8618798,9.87042814 43.7040527,8.39162836 42.7421814,8.45269634 C42.1956987,8.48742772 41.6159711,9.01267818 41.3506982,9.34386085 M44.5978922,6.96714781 C44.6290806,6.62592431 44.7815954,6.40156945 44.8297489,6.07581869 L48,6.07581869 C47.7372976,7.45898371 47.2758118,8.8189396 46.9173164,10.1607891 C46.5557364,11.5149839 46.1334932,12.8295091 45.9895467,14.1713586 C46.1403478,14.5326638 46.7694285,14.3562086 47.1495159,14.3199958 C47.0062548,14.9991507 46.7406392,15.560614 46.6080027,16.2504681 C45.5685031,17.174718 43.141633,17.3740531 42.3555821,16.1023248 C41.4547167,16.4896373 40.958958,17.0701946 39.5721017,16.9190884 C37.6463027,16.7092187 36.8578526,14.792573 37.0208207,12.6117384 C37.1632249,10.697891 38.1501155,8.56067638 39.5721017,7.26409291 C41.0652043,5.90298479 43.3527546,5.40621078 44.5978922,6.96714781" id="Fill-12" fill="#D52741"></path>
                    <path d="M70.1923373,12.4779268 C70.1421356,13.2733505 70.265841,14.2013449 70.8103504,14.3286652 C71.4888456,14.486503 72.2566073,13.6302083 72.5888301,13.1442254 C73.3737256,11.9940768 74.1899758,9.78926988 73.2071859,8.48029906 C71.5397327,8.136403 70.2862301,10.9884762 70.1923373,12.4779268 M74.5989575,6.99938021 C74.6299696,6.65942189 74.7824596,6.435791 74.8306054,6.11109142 L78,6.11109142 C77.4417836,8.93264709 76.4168447,11.3072691 75.9902152,14.2545044 C76.249791,14.4945425 76.7662012,14.3762462 77.1496537,14.3286652 C77.0221789,15.0208873 76.7357032,15.5606859 76.608571,16.252908 C75.5692398,17.1741754 73.1427631,17.3728673 72.3568396,16.1050787 C71.1177293,17.164167 68.7020468,17.1884497 67.7185716,15.8827604 C67.1192342,15.0879929 66.92905,13.8776297 67.0226,12.6257561 C67.2602447,9.44635825 69.9624029,5.57949635 73.0522971,6.0370947 C73.7397017,6.13881968 74.0583888,6.56655682 74.5989575,6.99938021" id="Fill-14" fill="#D52741"></path>
                    <path d="M16.5847535,9.37501708 C16.4914515,8.20779304 15.2063776,8.39872732 14.5872072,8.92829355 C13.9363895,9.48525399 13.3842848,10.5303593 13.2552363,11.2368327 C14.8908893,11.460937 16.70052,10.8244344 16.5847535,9.37501708 M13.0333778,13.2473361 C13.1133978,15.1302749 15.2875454,14.4881614 16.2887782,13.768321 C16.4171708,13.6759068 16.7233125,13.220932 16.8066119,13.4704503 C16.4722664,14.3998728 16.2807434,15.4725374 15.9929668,16.4484971 C15.1334087,16.7874591 14.6932991,17.099687 13.4770948,16.9699771 C11.2106291,16.728215 10,14.9333997 10,12.6512646 C10,9.57568786 12.3799365,6.33855131 15.2531106,6.02450814 C17.4725154,5.78241601 19.5267971,7.35279689 18.878603,9.89649707 C18.4373456,11.6253022 16.5332652,13.116801 14.8828545,13.3214324 C14.2648318,13.3981692 13.5841707,13.2838066 13.0333778,13.2473361" id="Fill-16" fill="#D52741"></path>
                    <path d="M22.2753711,11.2373298 C24.30571,11.7752246 26.5736277,9.9320977 25.0168047,8.48369091 C23.3480061,8.37597998 22.5034271,10.2459934 22.2753711,11.2373298 M22.0530617,13.2468891 C22.061271,13.9334019 22.4558129,14.2312976 22.8679227,14.5117089 C24.2797684,14.6646156 25.0691804,13.7961653 25.7571248,13.4698985 C25.5256208,14.4526576 25.2481445,15.3895612 25.0168047,16.3723203 C24.0446523,16.8963596 23.6020037,17.081596 22.4978448,16.967782 C19.9347185,16.7041953 18.8522323,14.6865536 19.0160911,12.2045838 C19.205399,9.33515155 21.4255382,6.33161672 24.2016153,6.02745294 C26.4171573,5.78514459 28.2128726,7.1649331 27.9795626,9.45077997 C27.7331177,11.8679253 25.061792,13.7174852 22.0530617,13.2468891" id="Fill-18" fill="#D52741"></path>
                    <path d="M31.954431,6 C32.1747204,7.88380782 32.2668995,9.8947448 32.3333893,11.9313073 C32.5276537,11.9790639 32.7165452,11.5740477 32.8636287,11.3306054 C33.8636623,9.67859196 34.9530206,7.6907845 35.9696766,6 L39,6 C36.9448605,9.66960639 34.7847812,13.4229117 32.6361194,17 L29.6061318,17 C29.3980993,13.4021118 29.1490984,9.65629444 29,6 L31.954431,6 Z" id="Fill-20" fill="#D52741"></path>
                    <path d="M101,6 C100.130954,9.67093759 99.1041912,13.3738239 98.189867,17 L95,17 C95.9341862,13.3684991 96.8387477,9.51968051 97.8858778,6 L101,6 Z" id="Fill-22" fill="#D52741"></path>
                    <path d="M52.9036514,6.04354896 C53.2170009,6.03286869 52.8313529,6.41735827 52.9036514,6.64614959 C53.5714481,6.49445644 53.9450184,6.12899109 54.5685301,6.04354896 C56.7646603,5.7429996 58.2118047,7.01428501 57.9746119,9.35643398 C57.9157331,9.93767408 57.6228486,10.5731499 57.4448702,11.2391646 C57.2819888,11.8471054 57.1534954,12.5171252 56.9906141,13.1215615 C56.642709,14.4145412 56.0069518,17 56.0069518,17 L52.5681595,17 C52.5681595,17 53.7059804,13.5083874 54.2662519,11.4644515 C54.5913436,10.2791088 55.3512328,8.61782683 53.5850356,8.82959648 C51.8698331,9.03535848 51.6452212,11.7556556 51.1629516,13.497874 C50.8274597,14.7105848 50.4379535,16.0230894 50.1789538,17 L47,17 C47.9202544,13.3969121 48.9389756,9.70437702 49.8006866,6.04354896 L52.9036514,6.04354896 Z" id="Fill-24" fill="#D52741"></path>
                    <path d="M101.837625,15.7596744 C101.837625,15.6155591 101.681521,15.552442 101.452769,15.552442 C101.347498,15.552442 101.27505,15.5585802 101.238025,15.5661863 L101.238025,15.972111 L101.459773,15.972111 C101.691328,15.972111 101.837625,15.8873766 101.837625,15.7596744 M101.987325,16.2590072 C102.041761,16.4156659 102.081588,16.523352 102.11441,16.5665866 L101.89046,16.5665866 C101.862041,16.5348279 101.824817,16.4386176 101.780587,16.2994396 C101.731154,16.1449159 101.639693,16.0867361 101.441561,16.0820657 L101.238025,16.0820657 L101.238025,16.5665866 L101.021081,16.5665866 L101.021081,15.4643715 C101.130954,15.4495596 101.29066,15.4396851 101.437158,15.4396851 C101.668512,15.4396851 101.820614,15.4690419 101.925083,15.5324259 C102.007338,15.5804644 102.057572,15.6569255 102.057572,15.7448626 C102.057572,15.8907126 101.914877,15.988791 101.741361,16.0284227 L101.741361,16.0336269 C101.867645,16.0635175 101.944897,16.1430478 101.987325,16.2590072 M102.582722,15.5827329 C102.471247,15.448759 102.315344,15.3460101 102.11501,15.2735522 C101.914877,15.2017614 101.70994,15.1659995 101.501001,15.1659995 C101.28986,15.1659995 101.084923,15.2017614 100.88519,15.2735522 C100.686057,15.3460101 100.530554,15.448759 100.417078,15.5827329 C100.304603,15.7167067 100.248566,15.8556178 100.248566,16.0008006 C100.248566,16.1449159 100.303402,16.2827595 100.414276,16.4148652 C100.525751,16.5468375 100.679653,16.6501201 100.878185,16.723779 C101.077919,16.7971711 101.285257,16.8342674 101.501001,16.8342674 C101.716144,16.8342674 101.924283,16.7971711 102.122415,16.723779 C102.322148,16.6501201 102.47565,16.5468375 102.586524,16.4148652 C102.695597,16.2827595 102.751234,16.1449159 102.751234,16.0008006 C102.751234,15.8556178 102.695197,15.7167067 102.582722,15.5827329 M102.802268,16.4975981 C102.66978,16.6567921 102.484857,16.7806245 102.247698,16.8684281 C102.008739,16.9563651 101.760574,17 101.501001,17 C101.240827,17 100.992462,16.9563651 100.753903,16.8684281 C100.515944,16.7806245 100.331421,16.6567921 100.198933,16.4975981 C100.065844,16.3386709 100,16.1733387 100,16.0008006 C100,15.8267948 100.067045,15.6595943 100.201534,15.498799 C100.336224,15.3390713 100.523149,15.2155057 100.763109,15.12917 C101.003469,15.0435015 101.248632,15 101.501001,15 C101.752769,15 101.998732,15.0435015 102.238292,15.12917 C102.478252,15.2155057 102.665177,15.3390713 102.798466,15.498799 C102.932755,15.6595943 103,15.8267948 103,16.0008006 C103,16.1733387 102.933356,16.3386709 102.802268,16.4975981" id="Fill-26" fill="#FFFFFF"></path>
                    <g id="Group-14" transform="translate(51.403966, 19.584974)">
                        <g id="Group-12">
                            <path d="M1.81625041,6.47247531 C1.98751216,6.48131377 2.18488485,6.48556932 2.40853065,6.48556932 C2.68439831,6.48556932 2.91161207,6.45119756 3.09000973,6.38229036 C3.26873175,6.31354684 3.40739539,6.19340935 3.50616283,6.0218779 C3.60476808,5.85051012 3.65407071,5.61547275 3.65407071,5.31660211 C3.65407071,5.10546129 3.62812196,4.92460036 3.5759001,4.77352829 C3.52351606,4.62261989 3.44502108,4.50100933 3.34041518,4.40886028 C3.23597146,4.31638387 3.11109309,4.24911343 2.96610444,4.20655791 C2.82079144,4.1640024 2.63931236,4.14288832 2.42150503,4.14288832 L1.81625041,4.14288832 L1.81625041,6.47247531 Z M2.3953941,3.62862131 C2.68569575,3.62862131 2.91388258,3.5860658 3.07914369,3.50111845 C3.24489134,3.41617109 3.37025624,3.29521523 3.45588712,3.13841453 C3.54168018,2.98161384 3.58433344,2.76556277 3.58433344,2.49009766 C3.58433344,2.24687653 3.53795005,2.054231 3.44502108,1.91216106 C3.3522543,1.76992744 3.22007785,1.66812156 3.04881609,1.60657974 C2.87739215,1.54503792 2.66412585,1.51426701 2.40853065,1.51426701 C2.20515731,1.51426701 2.00794681,1.52163239 1.81625041,1.53619947 L1.81625041,3.62862131 L2.3953941,3.62862131 Z M3.75008109,3.85711168 C4.15650341,3.98608762 4.4664288,4.17284085 4.67985728,4.41753505 C4.89328576,4.66222925 5,4.95586229 5,5.2989252 C5,5.59190354 4.95134609,5.84690927 4.85403827,6.06361504 C4.75673046,6.28048448 4.6086604,6.45856293 4.40982809,6.5978504 C4.21099578,6.73697419 3.97713266,6.83878008 3.70856309,6.90326805 C3.43999351,6.96759234 3.09811872,7 2.6829387,7 L0,7 L0,6.70980414 C0.107362958,6.6805063 0.192182939,6.64908069 0.254784301,6.61536363 C0.317223484,6.58164657 0.363606876,6.53483551 0.394096659,6.47476676 C0.424586442,6.41453434 0.444210185,6.33842545 0.452967888,6.24611272 C0.461563412,6.15379999 0.465942264,6.03742703 0.465942264,5.89666648 L0.465942264,2.10775274 C0.465942264,1.96993835 0.462212131,1.85422009 0.455076224,1.76043428 C0.447778138,1.66664848 0.428965294,1.59053958 0.398475511,1.53178024 C0.367985728,1.47334825 0.321440156,1.42571881 0.259000973,1.38889192 C0.19672397,1.35239238 0.110282193,1.3194937 0,1.29003219 L0,1 L2.85274084,1 C3.17791113,1 3.44356147,1.01620383 3.64985404,1.04828414 C3.92264029,1.09231273 4.15926046,1.1685853 4.35987674,1.27693819 C4.53973403,1.37367014 4.680506,1.51132086 4.78219267,1.69005401 C4.88387934,1.86895084 4.93480376,2.08123738 4.93480376,2.32740466 C4.93480376,2.98979759 4.53973403,3.48638769 3.75008109,3.81750232 L3.75008109,3.85711168 Z" id="Fill-28" fill="#43566A" opacity="0.699999988"></path>
                            <path d="M8.72146045,4.58981818 C8.70987977,4.19141818 8.65229804,3.89454545 8.54871527,3.6992 C8.44497165,3.504 8.27785597,3.40625455 8.0476899,3.40625455 C7.82588765,3.40625455 7.64944308,3.50792727 7.51851703,3.71098182 C7.38726929,3.91403636 7.30893884,4.20712727 7.28304315,4.58981818 L8.72146045,4.58981818 Z M9.88757087,6.22661818 C9.59387189,6.50792727 9.30306808,6.7072 9.01515944,6.82414545 C8.72708995,6.94152727 8.39607544,7 8.02147252,7 C7.35075797,7 6.84603321,6.83403636 6.50761993,6.50196364 C6.16920664,6.16989091 6,5.67723636 6,5.02341818 C6,4.6016 6.08717681,4.23767273 6.26136958,3.93178182 C6.43556235,3.62574545 6.68261691,3.39389091 7.00221159,3.23636364 C7.32196711,3.07883636 7.69319233,3 8.11669146,3 C8.37870441,3 8.60838795,3.02734545 8.80558125,3.08203636 C9.00277454,3.13672727 9.17214202,3.21294545 9.31320117,3.31054545 C9.45426032,3.40829091 9.57087137,3.52610909 9.6630343,3.66414545 C9.77240741,3.82821818 9.85459809,4.01570909 9.90928465,4.22661818 C9.96686638,4.44276364 9.99710483,4.70443636 10,5.01163636 L7.26132937,5.01163636 C7.26422454,5.4832 7.35719168,5.83010909 7.53990912,6.0528 C7.72278741,6.27549091 8.00136716,6.38676364 8.37597008,6.38676364 C8.59471631,6.38676364 8.79190961,6.34967273 8.96754996,6.27549091 C9.14319032,6.20116364 9.33330653,6.0704 9.53773775,5.88290909 L9.88757087,6.22661818 Z" id="Fill-30" fill="#43566A" opacity="0.699999988"></path>
                            <path d="M14.0887343,6.72430246 C14.2151544,6.68525049 14.303138,6.6421533 14.3528352,6.59469972 C14.4025324,6.54740172 14.4381162,6.48127788 14.4597367,6.39632818 C14.4812071,6.31137849 14.4920174,6.16310549 14.4920174,5.95135359 L14.4920174,3.37750233 L14,3.37750233 L14,3.08920236 C14.1264201,3.06975417 14.2144037,3.04812779 14.2641009,3.02447879 C14.3137981,3.0006742 14.354787,2.96862359 14.3870677,2.92832694 C14.4193484,2.8878747 14.4448726,2.83575355 14.4637906,2.77165232 C14.4825584,2.70755108 14.4960713,2.62540193 14.5040288,2.52504927 C14.5471198,2.02375272 14.7263901,1.64412405 15.0424403,1.38647443 C15.3581903,1.12882481 15.8051649,1 16.3830639,1 C16.6141334,1 16.8198288,1.01944819 17,1.05850016 L17,1.91079764 L16.451529,1.91079764 C16.4058856,1.75770148 16.3554377,1.64490198 16.3003353,1.57239913 C16.245233,1.50005186 16.1734648,1.46380044 16.0845804,1.46380044 C15.9689705,1.46380044 15.8803864,1.50347474 15.8185276,1.58282336 C15.7566688,1.66232756 15.7143286,1.77497148 15.6915069,1.92137745 C15.6685351,2.06747225 15.6572744,2.27300073 15.6572744,2.5376517 L15.6572744,2.85520174 L16.4354637,2.85520174 L16.4354637,3.37750233 L15.6572744,3.37750233 L15.6572744,5.95135359 C15.6572744,6.16014936 15.6680847,6.30780002 15.6895551,6.39414998 C15.7110255,6.48065553 15.7493118,6.54880199 15.8044142,6.59890053 C15.8595165,6.64915465 15.9569591,6.69085157 16.0967419,6.72430246 L16.0967419,7 L14.0887343,7 L14.0887343,6.72430246 Z" id="Fill-32" fill="#43566A" opacity="0.699999988"></path>
                            <path d="M18.2357527,4.94152727 C18.2357527,5.49352727 18.3002346,5.90705455 18.4288958,6.18167273 C18.557557,6.45643636 18.7520624,6.59374545 19.0122607,6.59374545 C19.1559071,6.59374545 19.275789,6.55854545 19.3720578,6.48843636 C19.4681753,6.41789091 19.545372,6.31650909 19.6036479,6.18356364 C19.6619239,6.05090909 19.7032468,5.89134545 19.7276167,5.70516364 C19.752138,5.51898182 19.7642473,5.30996364 19.7642473,5.07810909 C19.7642473,4.51825455 19.6999167,4.09963636 19.5711042,3.8224 C19.442443,3.54487273 19.2521759,3.40625455 19,3.40625455 C18.8157875,3.40625455 18.6680542,3.4624 18.5569515,3.57425455 C18.4458488,3.68625455 18.3645652,3.85425455 18.3131007,4.07810909 C18.2616363,4.30210909 18.2357527,4.58981818 18.2357527,4.94152727 M18.9512601,7 C18.553016,7 18.209415,6.93294545 17.9207599,6.79898182 C17.6322561,6.66487273 17.4064179,6.44989091 17.2438508,6.15432727 C17.0812836,5.85890909 17,5.4832 17,5.02734545 C17,4.6784 17.0502535,4.37643636 17.1504579,4.12116364 C17.2506622,3.86589091 17.3902218,3.65498182 17.5691365,3.48829091 C17.7478998,3.32174545 17.9614773,3.19869091 18.209415,3.11927273 C18.4573526,3.03970909 18.7263301,3 19.0161962,3 C19.6720654,3 20.1667297,3.16610909 20.5000378,3.49803636 C20.8333459,3.83010909 21,4.31650909 21,4.95709091 C21,5.41032727 20.9173541,5.78981818 20.7520624,6.09585455 C20.5867706,6.40174545 20.3510936,6.62909091 20.0447287,6.77730909 C19.7385151,6.92596364 19.3740256,7 18.9512601,7" id="Fill-34" fill="#43566A" opacity="0.699999988"></path>
                            <path d="M22,3 L23.7714586,3 L23.7714586,5.20229036 C23.7714586,5.45629849 23.7804456,5.65489472 23.7985892,5.79778352 C23.8169024,5.94052457 23.851833,6.05356483 23.9035507,6.13690432 C23.9550989,6.22024381 24.0180079,6.28112301 24.0924475,6.31954193 C24.1667175,6.35796084 24.2616746,6.37702253 24.3771493,6.37702253 C24.4894021,6.37702253 24.6077594,6.34658293 24.732221,6.28570373 C24.8568522,6.22482453 24.9623224,6.13956409 25.0486316,6.02977466 C25.13528,5.92013299 25.1785193,5.8029553 25.1785193,5.67853713 L25.1785193,4.14680458 C25.1785193,3.95382342 25.1741106,3.81019579 25.1647845,3.71636498 C25.1557975,3.62238641 25.1383321,3.54894717 25.1123885,3.49604728 C25.0866144,3.4431474 25.0465968,3.39881788 24.9919965,3.36305874 C24.9372266,3.32744736 24.8476956,3.29360916 24.723234,3.26183967 L24.723234,3 L26.4991013,3 L26.4991013,5.77783524 C26.4991013,5.97879571 26.5030013,6.12567418 26.5106318,6.2181751 C26.5180927,6.31082379 26.535558,6.38500185 26.5628582,6.44041374 C26.5901584,6.49612117 26.6342456,6.54178057 26.6947808,6.57739195 C26.755655,6.61315109 26.8573948,6.64418175 27,6.67077946 L27,6.93660879 L25.7614881,6.97236793 L25.2105674,6.97236793 L25.2514328,6.40096047 L25.1968325,6.3889915 C24.9143351,6.61654969 24.6623597,6.77524935 24.4409062,6.86509051 C24.2192831,6.95507942 23.9959643,7 23.7714586,7 C23.4496219,7 23.1922203,6.94783894 22.999593,6.84336904 C22.8067962,6.73889915 22.6677519,6.58537126 22.5829688,6.3830809 C22.4980161,6.18049501 22.4554549,5.91939416 22.4554549,5.59918729 L22.4554549,4.14680458 C22.4554549,3.998744 22.453081,3.88496491 22.4486723,3.80561507 C22.4439244,3.72626524 22.4371418,3.66464721 22.4279852,3.62105652 C22.4189982,3.57731806 22.4061112,3.53771703 22.3893241,3.50195789 C22.3725371,3.46619874 22.3498152,3.43398596 22.3211585,3.40472848 C22.2921626,3.37561877 22.2526537,3.34916882 22.2026317,3.32537865 C22.1524401,3.30158847 22.0849527,3.28045807 22,3.26183967 L22,3 Z" id="Fill-36" fill="#43566A" opacity="0.699999988"></path>
                            <path d="M33,7 L30.7954369,7 L30.7954369,6.73816033 C30.9347348,6.70890284 31.0317186,6.66605098 31.0862192,6.60901367 C31.1408889,6.55227189 31.1777868,6.47558182 31.197759,6.37894348 C31.2173928,6.2824529 31.2270404,6.10853343 31.2270404,5.85718508 L31.2270404,4.79770964 C31.2270404,4.60975249 31.2226397,4.45563354 31.2134999,4.33535279 C31.2045293,4.21492427 31.1901425,4.11636498 31.1703395,4.03967492 C31.1505365,3.96298485 31.1232863,3.89885482 31.0885887,3.84713705 C31.0537219,3.79556705 31.0149623,3.75330624 30.9724789,3.72020687 C30.9301649,3.6871075 30.8815883,3.66272627 30.8270878,3.64676764 C30.7725873,3.63095678 30.7030229,3.62297747 30.6182255,3.62297747 C30.502962,3.62297747 30.3832978,3.65400813 30.2590637,3.71621721 C30.1346603,3.7784263 30.0302292,3.86442556 29.9454318,3.97406723 C29.8604651,4.08400443 29.818151,4.20103436 29.818151,4.32530477 L29.818151,5.85304765 C29.818151,6.10439601 29.8271216,6.2790543 29.8452321,6.37687477 C29.8635117,6.474843 29.9005789,6.55227189 29.9567719,6.60901367 C30.0127958,6.66605098 30.1121492,6.70890284 30.2544938,6.73816033 L30.2544938,7 L28.0590704,7 L28.0590704,6.73816033 C28.2044616,6.70373107 28.3051691,6.65866273 28.3613622,6.60310307 C28.417386,6.54754341 28.4551302,6.47218323 28.4749331,6.37687477 C28.4945669,6.28171407 28.5043837,6.10853343 28.5043837,5.85718508 L28.5043837,4.22615441 C28.5043837,4.03036572 28.5006601,3.88555597 28.4930436,3.79157739 C28.485427,3.69774658 28.4673166,3.62238641 28.438543,3.56549686 C28.4097695,3.50860731 28.3657628,3.46235685 28.3066924,3.42644994 C28.2476219,3.39083857 28.1453912,3.35980791 28,3.33335796 L28,3.06339121 L29.2452185,3.03176949 L29.818151,3.03176949 L29.7499408,3.60317695 L29.8044413,3.61499815 C29.9923158,3.46959734 30.1575099,3.35507942 30.2998544,3.2718877 C30.4423682,3.18840044 30.5916523,3.12234946 30.7475373,3.07343923 C30.9035916,3.02438123 31.0681087,3 31.2407501,3 C31.4892184,3 31.6953725,3.03103066 31.8590434,3.09323975 C32.0227142,3.15530107 32.1552419,3.24602881 32.2566264,3.36497968 C32.3581802,3.48407832 32.4309604,3.62962689 32.4747977,3.80147765 C32.5188044,3.97362394 32.5408077,4.17325453 32.5408077,4.40081271 L32.5408077,5.85304765 C32.5408077,5.96948652 32.5431773,6.07883266 32.5475779,6.18049501 C32.5521479,6.2824529 32.5636573,6.36372368 32.5817677,6.42445512 C32.6000474,6.48548208 32.6249281,6.53513114 32.6567482,6.57340229 C32.6885684,6.6118212 32.7332521,6.64418175 32.7907992,6.6706317 C32.8483464,6.69708164 32.91808,6.71968969 33,6.73816033 L33,7 Z" id="Fill-38" fill="#43566A" opacity="0.699999988"></path>
                            <mask id="mask-4" fill="white">
                                <use xlink:href="#path-3"></use>
                            </mask>
                            <g id="Clip-41"></g>
                        </g>
                        <g id="Group-42" transform="translate(33.429773, 0.500000)" fill="#43566A" opacity="0.699999988">
                            <path d="M3.29034108,3.6108447 C3.29034108,3.23057984 3.22564714,2.94851524 3.09572897,2.7644768 C2.96598756,2.58061247 2.76660295,2.48868031 2.49775188,2.48868031 C2.30137218,2.48868031 2.13292046,2.55797766 1.99204321,2.69674647 C1.85116596,2.83534118 1.74528707,3.03574633 1.67405303,3.29761371 C1.60281899,3.55948109 1.56729034,3.86957803 1.56729034,4.22807865 C1.56729034,4.84217854 1.63534272,5.30044646 1.7712707,5.60270827 C1.90755221,5.9051442 2.11948674,6.0562751 2.40760458,6.0562751 C2.54353257,6.0562751 2.67875352,6.02301934 2.81344419,5.95581136 C2.9479581,5.88877749 3.06090736,5.78587614 3.15282226,5.64710733 C3.24456039,5.50851262 3.29034108,5.34867602 3.29034108,5.16794574 L3.29034108,3.6108447 Z M4.66234763,5.35024304 C4.66234763,5.58721213 4.66623633,5.76028139 4.67419051,5.86927672 C4.68196792,5.97844617 4.7003509,6.06585137 4.72880917,6.1311441 C4.75726743,6.19678506 4.80322488,6.25041216 4.86632799,6.29237362 C4.92960786,6.33468331 5.0356635,6.37124724 5.18449493,6.40241363 L5.18449493,6.71564463 L3.89326743,6.7577802 L3.3189761,6.7577802 L3.36157512,6.08448156 L3.29034108,6.07978049 C3.0624982,6.3071733 2.82281244,6.48268016 2.5712838,6.60577873 C2.31975516,6.72887729 2.07847856,6.79051362 1.84727725,6.79051362 C1.27139509,6.79051362 0.840278887,6.59568012 0.553928642,6.20583899 C0.267224877,5.81634608 0.124226514,5.23027853 0.124226514,4.44781045 C0.124226514,3.91798171 0.211192144,3.47137943 0.385123404,3.10817773 C0.559408183,2.74497604 0.818007201,2.469876 1.16145074,2.28287762 C1.50471751,2.09587924 1.91851129,2.00238005 2.40283208,2.00238005 C2.54211849,2.00238005 2.67875352,2.01091163 2.81344419,2.0279748 C2.9479581,2.04521208 3.10686481,2.07881607 3.29034108,2.12861266 L3.29034108,1.70307817 C3.29034108,1.36947585 3.28574534,1.13337733 3.27620033,0.994782631 C3.26665532,0.856013815 3.24685827,0.74997842 3.21680917,0.676676448 C3.18676007,0.60354859 3.14168642,0.546613329 3.08141146,0.506044779 C3.02149002,0.465650343 2.9122527,0.429608756 2.75405303,0.398442359 L2.75405303,0.0852113662 L4.06878953,0.0197445217 L4.66234763,0.0197445217 L4.66234763,5.35024304 Z" id="Fill-40"></path>
                        </g>
                    </g>
                    <path d="M47,24 L10,24" id="Stroke-43" stroke="#8B7F7F" stroke-width="0.561599968" opacity="0.699999988"></path>
                </g>
            </g>
        </g>
    </g>
</svg>