<svg xmlns="http://www.w3.org/2000/svg" xmlns:xlink="http://www.w3.org/1999/xlink" width="20" height="20" viewBox="0 0 20 20">
  <defs>
    <path id="meet_your_advisor-a" d="M12,2 C6.48,2 2,6.48 2,12 C2,17.52 6.48,22 12,22 C17.52,22 22,17.52 22,12 C22,6.48 17.52,2 12,2 Z M15.61,8.34 C16.68,8.34 17.54,9.2 17.54,10.27 C17.54,11.34 16.68,12.2 15.61,12.2 C14.54,12.2 13.68,11.34 13.68,10.27 C13.67,9.2 14.54,8.34 15.61,8.34 Z M9.61,6.76 C10.91,6.76 11.97,7.82 11.97,9.12 C11.97,10.42 10.91,11.48 9.61,11.48 C8.31,11.48 7.25,10.42 7.25,9.12 C7.25,7.81 8.3,6.76 9.61,6.76 Z M9.61,15.89 L9.61,19.64 C7.21,18.89 5.31,17.04 4.47,14.68 C5.52,13.56 8.14,12.99 9.61,12.99 C10.14,12.99 10.81,13.07 11.51,13.21 C9.87,14.08 9.61,15.23 9.61,15.89 Z M12,20 C11.73,20 11.47,19.99 11.21,19.96 L11.21,15.89 C11.21,14.47 14.15,13.76 15.61,13.76 C16.68,13.76 18.53,14.15 19.45,14.91 C18.28,17.88 15.39,20 12,20 Z"/>
    <linearGradient id="meet_your_advisor-c" x1="50%" x2="67.306%" y1="18.338%" y2="87.373%">
      <stop offset="0%" stop-color="#FF7558"/>
      <stop offset="78.974%" stop-color="#FB0428"/>
      <stop offset="100%" stop-color="#FD2054"/>
    </linearGradient>
    <rect id="meet_your_advisor-d" width="24" height="24" x="0" y="0"/>
  </defs>
  <g fill="none" fill-rule="evenodd" transform="translate(-2 -2)">
    <mask id="meet_your_advisor-b" fill="#fff">
      <use xlink:href="#meet_your_advisor-a"/>
    </mask>
    <g fill-rule="nonzero" mask="url(#meet_your_advisor-b)">
      <use fill="url(#meet_your_advisor-c)" xlink:href="#meet_your_advisor-d"/>
      <use fill="#D9475C" xlink:href="#meet_your_advisor-d"/>
    </g>
  </g>
</svg>
