<?xml version="1.0" encoding="UTF-8"?>
<svg width="24px" height="24px" viewBox="0 0 24 24" version="1.1" xmlns="http://www.w3.org/2000/svg" xmlns:xlink="http://www.w3.org/1999/xlink">
    <!-- Generator: Sketch 52.6 (67491) - http://www.bohemiancoding.com/sketch -->
    <title>Icons / Privacy 2</title>
    <desc>Created with Sketch.</desc>
    <defs>
        <path d="M9,8.80952381 C10.24,8.80952381 11.25,7.84761905 11.25,6.66666667 C11.25,5.48571429 10.24,4.52380952 9,4.52380952 C7.76,4.52380952 6.75,5.48571429 6.75,6.66666667 C6.75,7.84761905 7.76,8.80952381 9,8.80952381 Z M13.5,12.6190476 C13.5,11.1904762 10.5,10.4761905 9,10.4761905 C7.5,10.4761905 4.5,11.1904762 4.5,12.6190476 L4.5,13.3333333 L13.5,13.3333333 L13.5,12.6190476 Z M16,0 L2,0 C0.9,0 0,0.857142857 0,1.9047619 L0,15.2380952 C0,16.2857143 0.9,17.1428571 2,17.1428571 L16,17.1428571 C17.1,17.1428571 18,16.2857143 18,15.2380952 L18,1.9047619 C18,0.857142857 17.1,0 16,0 Z M16,15.2380952 L2,15.2380952 L2,1.9047619 L16,1.9047619 L16,15.2380952 Z" id="path-1"></path>
        <polygon id="path-3" points="9.00982189 -2.46167331 10.9622028 -2.41405426 11.6088506 24.0985043 9.65646966 24.0508852"></polygon>
        <filter x="-115.4%" y="-3.8%" width="253.9%" height="107.5%" filterUnits="objectBoundingBox" id="filter-4">
            <feOffset dx="-2" dy="0" in="SourceAlpha" result="shadowOffsetOuter1"></feOffset>
            <feColorMatrix values="0 0 0 0 0.850980392   0 0 0 0 0.278431373   0 0 0 0 0.360784314  0 0 0 1 0" type="matrix" in="shadowOffsetOuter1"></feColorMatrix>
        </filter>
    </defs>
    <g id="Icons-/-Privacy-2" stroke="none" stroke-width="1" fill="none" fill-rule="evenodd">
        <rect fill="#D9475C" x="0" y="0" width="24" height="24"></rect>
        <g id="Group-97" transform="translate(2.000000, 1.000000)">
            <g id="icon/image/portrait_24px" transform="translate(2.000000, 1.952381)">
                <mask id="mask-2" fill="white">
                    <use xlink:href="#path-1"></use>
                </mask>
                <g fill-rule="nonzero"></g>
                <g id="Group-93" mask="url(#mask-2)">
                    <g transform="translate(-3.000000, -2.857143)" id="✱-/-Color-/-Icons-/-Selected-/-On-Primary-/-Active-">
                        <g>
                            <rect id="Rectangle-3" fill="#FFFFFF" x="0" y="0" width="24" height="23"></rect>
                        </g>
                    </g>
                </g>
            </g>
            <g id="Rectangle-8" transform="translate(10.309336, 10.818415) rotate(-225.000000) translate(-10.309336, -10.818415) ">
                <use fill="black" fill-opacity="1" filter="url(#filter-4)" xlink:href="#path-3"></use>
                <use fill="#FFFFFF" fill-rule="evenodd" xlink:href="#path-3"></use>
            </g>
        </g>
    </g>
</svg>