<?xml version="1.0" encoding="UTF-8"?>
<svg width="276px" height="270px" viewBox="0 0 276 270" version="1.1" xmlns="http://www.w3.org/2000/svg" xmlns:xlink="http://www.w3.org/1999/xlink">
    <!-- Generator: Sketch 52.6 (67491) - http://www.bohemiancoding.com/sketch -->
    <title>Privacy Illustration</title>
    <desc>Created with Sketch.</desc>
    <defs>
        <path d="M3.19036649,0 L135.430741,0 C137.087595,1.58830449e-14 138.430741,1.34314575 138.430741,3 L138.430741,155.724045 C138.430741,157.380899 137.087595,158.724045 135.430741,158.724045 L3.19036649,158.724045 C1.53351224,158.724045 0.19036649,157.380899 0.19036649,155.724045 L0.19036649,3 C0.19036649,1.34314575 1.53351224,3.04359188e-16 3.19036649,0 Z" id="path-1"></path>
        <filter x="-7.6%" y="-4.7%" width="115.2%" height="113.2%" filterUnits="objectBoundingBox" id="filter-2">
            <feOffset dx="0" dy="3" in="SourceAlpha" result="shadowOffsetOuter1"></feOffset>
            <feGaussianBlur stdDeviation="3" in="shadowOffsetOuter1" result="shadowBlurOuter1"></feGaussianBlur>
            <feColorMatrix values="0 0 0 0 0.203921569   0 0 0 0 0.28627451   0 0 0 0 0.368627451  0 0 0 0.271144701 0" type="matrix" in="shadowBlurOuter1"></feColorMatrix>
        </filter>
        <linearGradient x1="64.6983487%" y1="16.0423778%" x2="67.3057606%" y2="87.3725242%" id="linearGradient-3">
            <stop stop-color="#FF7558" offset="0%"></stop>
            <stop stop-color="#FB0428" offset="78.9740776%"></stop>
            <stop stop-color="#FD2054" offset="100%"></stop>
        </linearGradient>
        <path d="M15.4205438,0.28527309 C7.07147107,0.28527309 0.295412045,8.01908073 0.295412045,17.5482366 C0.295412045,27.0773924 7.07147107,34.8112001 15.4205438,34.8112001 C23.7696165,34.8112001 30.5456756,27.0773924 30.5456756,17.5482366 C30.5456756,8.01908073 23.7696165,0.28527309 15.4205438,0.28527309 Z M15.4205438,5.46416214 C17.9313157,5.46416214 19.9580833,7.77739924 19.9580833,10.6430512 C19.9580833,13.5087031 17.9313157,15.8219402 15.4205438,15.8219402 C12.9097719,15.8219402 10.8830043,13.5087031 10.8830043,10.6430512 C10.8830043,7.77739924 12.9097719,5.46416214 15.4205438,5.46416214 Z M15.4205438,29.9775703 C11.6392609,29.9775703 8.29660675,27.767911 6.34546475,24.418896 C6.39084015,20.9835663 12.3955175,19.1019033 15.4205438,19.1019033 C18.430445,19.1019033 24.4502475,20.9835663 24.4956229,24.418896 C22.5444809,27.767911 19.2018267,29.9775703 15.4205438,29.9775703 Z" id="path-4"></path>
        <path d="M3,0 L145.034418,0 C146.691272,-3.04359188e-16 148.034418,1.34314575 148.034418,3 L148.034418,167.032932 C148.034418,168.689786 146.691272,170.032932 145.034418,170.032932 L3,170.032932 C1.34314575,170.032932 1.52104299e-14,168.689786 -4.4408921e-16,167.032932 L-4.4408921e-16,3 C-6.46995335e-16,1.34314575 1.34314575,3.04359188e-16 3,0 Z" id="path-6"></path>
        <filter x="-7.1%" y="-4.4%" width="114.2%" height="112.4%" filterUnits="objectBoundingBox" id="filter-7">
            <feOffset dx="0" dy="3" in="SourceAlpha" result="shadowOffsetOuter1"></feOffset>
            <feGaussianBlur stdDeviation="3" in="shadowOffsetOuter1" result="shadowBlurOuter1"></feGaussianBlur>
            <feColorMatrix values="0 0 0 0 0.203921569   0 0 0 0 0.28627451   0 0 0 0 0.368627451  0 0 0 0.271144701 0" type="matrix" in="shadowBlurOuter1"></feColorMatrix>
        </filter>
        <circle id="path-8" cx="21.2214059" cy="21.2214059" r="21.2214059"></circle>
        <path d="M9.85971713,18.9204083 C4.64179367,18.9204083 0.411830937,14.6849307 0.411830937,9.46020417 C0.411830937,4.23547768 4.64179367,0 9.85971713,0 C15.0776406,0 19.3076033,4.23547768 19.3076033,9.46020417 C19.3076033,14.6849307 15.0776406,18.9204083 9.85971713,18.9204083 Z M9.46020417,20.6399975 L10.5741596,20.6399975 C15.7988861,20.6399975 20.0343638,24.8754752 20.0343638,30.1002017 C20.0343638,35.3249282 15.7988861,39.5604059 10.5741596,39.5604059 L9.46020417,39.5604059 C4.23547768,39.5604059 6.39844458e-16,35.3249282 0,30.1002017 C-6.39844458e-16,24.8754752 4.23547768,20.6399975 9.46020417,20.6399975 Z" id="path-10"></path>
        <path d="M5.0661736,0.79916744 L1.33320358,0.79916744 C1.03989879,0.79916744 0.799922148,1.03891767 0.799922148,1.33194573 L0.799922148,5.06139378 C0.799922148,5.35442185 1.03989879,5.59417208 1.33320358,5.59417208 L5.0661736,5.59417208 C5.35947839,5.59417208 5.59945504,5.35442185 5.59945504,5.06139378 L5.59945504,1.33194573 C5.59945504,1.03891767 5.35947839,0.79916744 5.0661736,0.79916744 Z M2.85572207,4.3394792 C2.75173219,4.44337096 2.58374854,4.44337096 2.47975866,4.3394792 L1.52251849,3.38314216 C1.4725893,3.33337227 1.44452992,3.26580244 1.44452992,3.19533781 C1.44452992,3.12487318 1.4725893,3.05730336 1.52251849,3.00753346 C1.62650837,2.9036417 1.79449202,2.9036417 1.8984819,3.00753346 L2.66640716,3.77473421 L4.50089529,1.94197688 C4.60488516,1.83808511 4.77286882,1.83808511 4.8768587,1.94197688 C4.98084857,2.04586865 4.98084857,2.21369381 4.8768587,2.31758557 L2.85572207,4.3394792 Z" id="path-12"></path>
        <path d="M4.5,4.75 L1.5,4.75 C1.3625,4.75 1.25,4.6375 1.25,4.5 L1.25,1.5 C1.25,1.3625 1.3625,1.25 1.5,1.25 L4.5,1.25 C4.6375,1.25 4.75,1.3625 4.75,1.5 L4.75,4.5 C4.75,4.6375 4.6375,4.75 4.5,4.75 Z M4.75,0.75 L1.25,0.75 C0.975,0.75 0.75,0.975 0.75,1.25 L0.75,4.75 C0.75,5.025 0.975,5.25 1.25,5.25 L4.75,5.25 C5.025,5.25 5.25,5.025 5.25,4.75 L5.25,1.25 C5.25,0.975 5.025,0.75 4.75,0.75 Z" id="path-14"></path>
        <path d="M4.5,4.75 L1.5,4.75 C1.3625,4.75 1.25,4.6375 1.25,4.5 L1.25,1.5 C1.25,1.3625 1.3625,1.25 1.5,1.25 L4.5,1.25 C4.6375,1.25 4.75,1.3625 4.75,1.5 L4.75,4.5 C4.75,4.6375 4.6375,4.75 4.5,4.75 Z M4.75,0.75 L1.25,0.75 C0.975,0.75 0.75,0.975 0.75,1.25 L0.75,4.75 C0.75,5.025 0.975,5.25 1.25,5.25 L4.75,5.25 C5.025,5.25 5.25,5.025 5.25,4.75 L5.25,1.25 C5.25,0.975 5.025,0.75 4.75,0.75 Z" id="path-16"></path>
        <path d="M5.0661736,0.79916744 L1.33320358,0.79916744 C1.03989879,0.79916744 0.799922148,1.03891767 0.799922148,1.33194573 L0.799922148,5.06139378 C0.799922148,5.35442185 1.03989879,5.59417208 1.33320358,5.59417208 L5.0661736,5.59417208 C5.35947839,5.59417208 5.59945504,5.35442185 5.59945504,5.06139378 L5.59945504,1.33194573 C5.59945504,1.03891767 5.35947839,0.79916744 5.0661736,0.79916744 Z M2.85572207,4.3394792 C2.75173219,4.44337096 2.58374854,4.44337096 2.47975866,4.3394792 L1.52251849,3.38314216 C1.4725893,3.33337227 1.44452992,3.26580244 1.44452992,3.19533781 C1.44452992,3.12487318 1.4725893,3.05730336 1.52251849,3.00753346 C1.62650837,2.9036417 1.79449202,2.9036417 1.8984819,3.00753346 L2.66640716,3.77473421 L4.50089529,1.94197688 C4.60488516,1.83808511 4.77286882,1.83808511 4.8768587,1.94197688 C4.98084857,2.04586865 4.98084857,2.21369381 4.8768587,2.31758557 L2.85572207,4.3394792 Z" id="path-18"></path>
        <path d="M17.4718003,0 L101.88234,0 C111.444889,-1.75661166e-15 119.196866,7.75197722 119.196866,17.3145257 L119.196866,17.3145257 C119.196866,26.8770742 111.444889,34.6290514 101.88234,34.6290514 L17.4718003,34.6290514 C7.90925177,34.6290514 0.157274557,26.8770742 0.157274557,17.3145257 L0.157274557,17.3145257 C0.157274557,7.75197722 7.90925177,5.30932534e-15 17.4718003,3.55271368e-15 Z" id="path-20"></path>
        <filter x="-27.7%" y="-60.6%" width="155.4%" height="290.6%" filterUnits="objectBoundingBox" id="filter-21">
            <feOffset dx="0" dy="12" in="SourceAlpha" result="shadowOffsetOuter1"></feOffset>
            <feGaussianBlur stdDeviation="9" in="shadowOffsetOuter1" result="shadowBlurOuter1"></feGaussianBlur>
            <feColorMatrix values="0 0 0 0 0.149019608   0 0 0 0 0.188235294   0 0 0 0 0.549019608  0 0 0 0.204115716 0" type="matrix" in="shadowBlurOuter1"></feColorMatrix>
        </filter>
        <path d="M23.4715636,3.02777318 L22.0345784,3.02777318 L22.0345784,1.60631899 C22.0345784,0.824519187 21.387935,0.184864801 20.5975932,0.184864801 C19.8072513,0.184864801 19.1606079,0.824519187 19.1606079,1.60631899 L19.1606079,3.02777318 L7.66472606,3.02777318 L7.66472606,1.60631899 C7.66472606,0.824519187 7.0180827,0.184864801 6.22774082,0.184864801 C5.43739894,0.184864801 4.79075559,0.824519187 4.79075559,1.60631899 L4.79075559,3.02777318 L3.35377035,3.02777318 C1.75871674,3.02777318 0.479799886,4.30708196 0.479799886,5.87068157 L0.479799886,25.7710403 C0.479799886,27.3346399 1.7730866,28.6139486 3.35377035,28.6139486 L23.4715636,28.6139486 C25.0522474,28.6139486 26.3455341,27.3346399 26.3455341,25.7710403 L26.3455341,5.87068157 C26.3455341,4.30708196 25.0522474,3.02777318 23.4715636,3.02777318 Z M13.412667,7.29213576 C15.7980625,7.29213576 17.7236227,9.19688438 17.7236227,11.5564983 C17.7236227,13.9161123 15.7980625,15.8208609 13.412667,15.8208609 C11.0272715,15.8208609 9.10171129,13.9161123 9.10171129,11.5564983 C9.10171129,9.19688438 11.0272715,7.29213576 13.412667,7.29213576 Z M22.0345784,24.3495861 L4.79075559,24.3495861 L4.79075559,22.9281319 C4.79075559,20.0852235 10.5386965,18.5216239 13.412667,18.5216239 C16.2866375,18.5216239 22.0345784,20.0852235 22.0345784,22.9281319 L22.0345784,24.3495861 Z" id="path-22"></path>
        <path d="M17.3263415,8.87042124 L16.0887457,8.87042124 L16.0887457,6.33601517 C16.0887457,2.8385348 13.316531,0 9.90076656,0 C6.4850021,0 3.71278746,2.8385348 3.71278746,6.33601517 L3.71278746,8.87042124 L2.47519164,8.87042124 C1.11383624,8.87042124 -7.27595761e-12,10.010904 -7.27595761e-12,11.4048273 L-7.27595761e-12,24.0768577 C-7.27595761e-12,25.470781 1.11383624,26.6112637 2.47519164,26.6112637 L17.3263415,26.6112637 C18.6876969,26.6112637 19.8015331,25.470781 19.8015331,24.0768577 L19.8015331,11.4048273 C19.8015331,10.010904 18.6876969,8.87042124 17.3263415,8.87042124 Z M9.90076656,20.2752485 C8.53941116,20.2752485 7.42557492,19.1347658 7.42557492,17.7408425 C7.42557492,16.3469191 8.53941116,15.2064364 9.90076656,15.2064364 C11.262122,15.2064364 12.3759582,16.3469191 12.3759582,17.7408425 C12.3759582,19.1347658 11.262122,20.2752485 9.90076656,20.2752485 Z M6.1879791,8.87042124 L6.1879791,6.33601517 C6.1879791,4.23245813 7.8463575,2.53440607 9.90076656,2.53440607 C11.9551756,2.53440607 13.613554,4.23245813 13.613554,6.33601517 L13.613554,8.87042124 L6.1879791,8.87042124 Z" id="path-24"></path>
    </defs>
    <g id="Page-1" stroke="none" stroke-width="1" fill="none" fill-rule="evenodd">
        <g id="Regular-Web-Copy-2" transform="translate(-267.000000, -1323.000000)">
            <g id="Group-15" transform="translate(188.000000, 548.000000)">
                <g id="Rectangle-2" transform="translate(-3.000000, 723.000000)">
                    <g id="Privacy-Illustration" transform="translate(74.000000, 48.000000)">
                        <g id="Group-22">
                            <path d="M231.294941,130.052717 C223.747243,127.772667 200.399128,123.795284 192.967086,133.417385 C185.535043,143.039487 209.445096,183.233231 193.209486,211.389048 C176.973877,239.544865 126.970043,267.77045 99.5679714,272.254404 C72.1658999,276.738358 10.0281167,270.73306 9.08939157,211.389048 C8.15066645,152.045037 85.2060484,136.165739 94.6949218,91.3288057 C104.264182,46.1120262 87.0031888,22.9985401 40.4343358,14.7911993" id="Path-5" stroke="#FFFFFF" stroke-linecap="round" stroke-linejoin="round" stroke-dasharray="2,2"></path>
                            <g id="Group-8" transform="translate(0.220660, 46.999982)">
                                <g id="Group-18" transform="translate(112.593466, 106.637503) rotate(4.000000) translate(-112.593466, -106.637503) translate(7.593466, 7.137503)">
                                    <g id="Group-17" transform="translate(91.316044, 97.345941) rotate(-18.000000) translate(-91.316044, -97.345941) translate(21.816044, 17.845941)">
                                        <g id="Rectangle-6">
                                            <use fill="black" fill-opacity="1" filter="url(#filter-2)" xlink:href="#path-1"></use>
                                            <use fill="#FFFFFF" fill-rule="evenodd" xlink:href="#path-1"></use>
                                        </g>
                                        <g id="Group-2" transform="translate(13.079495, 109.575991)" fill="#D8DBE1">
                                            <rect id="Rectangle-5-Copy" x="0" y="0" width="113.51174" height="3.7982365" rx="1.89911825"></rect>
                                            <rect id="Rectangle-5-Copy-3" x="0" y="7.596473" width="113.51174" height="3.7982365" rx="1.89911825"></rect>
                                            <path d="M1.89911825,14.2433869 L111.612622,14.2433869 C112.661476,14.2433869 113.51174,15.0936511 113.51174,16.1425051 L113.51174,16.1425051 C113.51174,17.1913592 112.661476,18.0416234 111.612622,18.0416234 L1.89911825,18.0416234 C0.850264202,18.0416234 1.28447575e-16,17.1913592 0,16.1425051 L0,16.1425051 C-1.28447575e-16,15.0936511 0.850264202,14.2433869 1.89911825,14.2433869 Z" id="Rectangle-5-Copy-4"></path>
                                            <path d="M1.89911825,20.8903007 L68.710547,20.8903007 C69.7594011,20.8903007 70.6096653,21.7405649 70.6096653,22.789419 L70.6096653,22.789419 C70.6096653,23.838273 69.7594011,24.6885372 68.710547,24.6885372 L1.89911825,24.6885372 C0.850264202,24.6885372 1.28447575e-16,23.838273 0,22.789419 L0,22.789419 C-1.28447575e-16,21.7405649 0.850264202,20.8903007 1.89911825,20.8903007 Z" id="Rectangle-5-Copy-5"></path>
                                        </g>
                                        <g id="Group-3-Copy-2" transform="translate(24.782200, 26.588292)">
                                            <g id="icon/action/account_circle_24px" transform="translate(28.912567, 0.000000)">
                                                <mask id="mask-5" fill="white">
                                                    <use xlink:href="#path-4"></use>
                                                </mask>
                                                <use fill="url(#linearGradient-3)" fill-rule="nonzero" xlink:href="#path-4"></use>
                                            </g>
                                            <g id="Group" transform="translate(0.191629, 50.428088)" fill="#B9BDC6">
                                                <rect id="Rectangle-5" x="0" y="0" width="89.4808601" height="7.25135231" rx="3.62567616"></rect>
                                                <path d="M14.0552842,10.4741756 L74.7913533,10.4741756 C76.0906465,10.4741756 77.1439318,11.5274608 77.1439318,12.826754 L77.1439318,12.826754 C77.1439318,14.1260472 76.0906465,15.1793325 74.7913533,15.1793325 L14.0552842,15.1793325 C12.755991,15.1793325 11.7027058,14.1260472 11.7027058,12.826754 L11.7027058,12.826754 C11.7027058,11.5274608 12.755991,10.4741756 14.0552842,10.4741756 Z" id="Rectangle-5-Copy"></path>
                                            </g>
                                        </g>
                                    </g>
                                    <g id="Group-17" transform="translate(127.439959, 106.507709) rotate(-5.000000) translate(-127.439959, -106.507709) translate(52.439959, 21.007709)">
                                        <g id="Rectangle-6">
                                            <use fill="black" fill-opacity="1" filter="url(#filter-7)" xlink:href="#path-6"></use>
                                            <use fill="#FFFFFF" fill-rule="evenodd" xlink:href="#path-6"></use>
                                        </g>
                                        <g id="Group-Copy-37" transform="translate(53.000000, 26.000000)">
                                            <g id="Group-2">
                                                <mask id="mask-9" fill="white">
                                                    <use xlink:href="#path-8"></use>
                                                </mask>
                                                <use id="Oval-4" fill="#EEF3F9" xlink:href="#path-8"></use>
                                                <g id="Group-58" mask="url(#mask-9)">
                                                    <g transform="translate(11.337463, 10.465351)">
                                                        <mask id="mask-11" fill="white">
                                                            <use xlink:href="#path-10"></use>
                                                        </mask>
                                                        <use id="Combined-Shape" stroke="#14202B" stroke-width="1" fill="#FFFFFF" fill-rule="evenodd" stroke-linecap="round" stroke-linejoin="round" xlink:href="#path-10"></use>
                                                    </g>
                                                </g>
                                                <ellipse id="Oval" fill="#F5CAD0" style="mix-blend-mode: multiply;" mask="url(#mask-9)" cx="22.370459" cy="19.7962228" rx="8.58536658" ry="8.59656002"></ellipse>
                                            </g>
                                        </g>
                                        <path d="M121.962178,18.213405 C124.579082,18.213405 126.702945,20.2513167 126.702945,22.7623151 C126.702945,23.2263039 126.60813,23.6720971 126.475388,24.0905969 L129.376738,26.8745299 C130.694671,25.755498 131.73764,24.3544337 132.391866,22.7532173 C130.75156,18.768372 126.702945,15.9389499 121.962178,15.9389499 C120.758023,15.9389499 119.601276,16.1209063 118.5109,16.4575256 L120.568393,18.4317526 C121.014025,18.3043832 121.47862,18.213405 121.962178,18.213405 Z M113.153833,15.174733 C112.784053,15.529548 112.784053,16.1027106 113.153833,16.4575256 L115.021695,18.2497962 C113.485687,19.4234151 112.262569,20.9700445 111.532491,22.7623151 C113.172796,26.7562582 117.221411,29.5856803 121.962178,29.5856803 C123.403371,29.5856803 124.778194,29.3127457 126.048719,28.8396591 L128.627697,31.3142662 C128.997476,31.6690812 129.594813,31.6690812 129.964593,31.3142662 C130.334373,30.9594512 130.334373,30.3862885 129.964593,30.0314735 L114.500211,15.174733 C114.130431,14.819918 113.523613,14.819918 113.153833,15.174733 Z M121.962178,27.3112253 C119.345275,27.3112253 117.221411,25.2733135 117.221411,22.7623151 C117.221411,22.0617829 117.392079,21.3976421 117.686006,20.8153816 L119.174607,22.2437394 C119.146163,22.4075001 119.117718,22.5803587 119.117718,22.7623151 C119.117718,24.2725533 120.388243,25.4916612 121.962178,25.4916612 C122.151809,25.4916612 122.322476,25.4643677 122.502626,25.4279765 L123.991226,26.8563342 C123.374927,27.1474645 122.692256,27.3112253 121.962178,27.3112253 Z M124.778194,22.462087 C124.635971,21.1883922 123.593002,20.1967298 122.275069,20.0602625 L124.778194,22.462087 Z" id="icon/action/visibility_off_24px" fill="#B9BDC6" fill-rule="nonzero"></path>
                                        <g id="Group-2" transform="translate(19.006870, 116.259215)">
                                            <rect id="Rectangle-5-Copy" fill="#D8DBE1" x="8.34375" y="1.04198473" width="121.291461" height="4.09128541" rx="2.0456427"></rect>
                                            <g id="icon/toggle/check_box_24px" transform="translate(0.000000, 8.335878)">
                                                <mask id="mask-13" fill="white">
                                                    <use xlink:href="#path-12"></use>
                                                </mask>
                                                <use fill="#D9475C" fill-rule="nonzero" xlink:href="#path-12"></use>
                                            </g>
                                            <g id="icon/toggle/check_box_outline_blank_24px">
                                                <mask id="mask-15" fill="white">
                                                    <use xlink:href="#path-14"></use>
                                                </mask>
                                                <g fill-rule="nonzero"></g>
                                                <g id="✱-/-Color-/-Icons-/-Disabled" mask="url(#mask-15)" fill="#B3BAC5" fill-rule="evenodd">
                                                    <rect id="Rectangle" x="0" y="0" width="6" height="6"></rect>
                                                </g>
                                            </g>
                                            <path d="M10.3893927,9.3778626 L127.589569,9.3778626 C128.719346,9.3778626 129.635211,10.293728 129.635211,11.4235053 L129.635211,11.4235053 C129.635211,12.5532826 128.719346,13.469148 127.589569,13.469148 L10.3893927,13.469148 C9.25961544,13.469148 8.34375,12.5532826 8.34375,11.4235053 L8.34375,11.4235053 C8.34375,10.293728 9.25961544,9.3778626 10.3893927,9.3778626 Z" id="Rectangle-5-Copy-3" fill="#8E95A5"></path>
                                            <path d="M10.3893927,16.6717557 L127.589569,16.6717557 C128.719346,16.6717557 129.635211,17.5876212 129.635211,18.7173984 L129.635211,18.7173984 C129.635211,19.8471757 128.719346,20.7630411 127.589569,20.7630411 L10.3893927,20.7630411 C9.25961544,20.7630411 8.34375,19.8471757 8.34375,18.7173984 L8.34375,18.7173984 C8.34375,17.5876212 9.25961544,16.6717557 10.3893927,16.6717557 Z" id="Rectangle-5-Copy-4" fill="#D8DBE1"></path>
                                            <path d="M10.3893927,23.9656489 L81.7471266,23.9656489 C82.8769039,23.9656489 83.7927693,24.8815143 83.7927693,26.0112916 L83.7927693,26.0112916 C83.7927693,27.1410688 82.8769039,28.0569343 81.7471266,28.0569343 L10.3893927,28.0569343 C9.25961544,28.0569343 8.34375,27.1410688 8.34375,26.0112916 L8.34375,26.0112916 C8.34375,24.8815143 9.25961544,23.9656489 10.3893927,23.9656489 Z" id="Rectangle-5-Copy-5" fill="#8E95A5"></path>
                                            <g id="icon/toggle/check_box_outline_blank_24px" transform="translate(0.000000, 15.629771)">
                                                <mask id="mask-17" fill="white">
                                                    <use xlink:href="#path-16"></use>
                                                </mask>
                                                <g fill-rule="nonzero"></g>
                                                <g id="✱-/-Color-/-Icons-/-Disabled" mask="url(#mask-17)" fill="#B3BAC5" fill-rule="evenodd">
                                                    <rect id="Rectangle" x="0" y="0" width="6" height="6"></rect>
                                                </g>
                                            </g>
                                            <g id="icon/toggle/check_box_24px-copy-4" transform="translate(0.000000, 22.923664)">
                                                <mask id="mask-19" fill="white">
                                                    <use xlink:href="#path-18"></use>
                                                </mask>
                                                <use id="icon/toggle/check_box_24px" fill="#D9475C" fill-rule="nonzero" xlink:href="#path-18"></use>
                                            </g>
                                        </g>
                                        <g id="Group-3-Copy-2" transform="translate(26.664585, 81.390044)" fill="#B9BDC6">
                                            <g id="Group" transform="translate(0.205153, 0.802884)">
                                                <rect id="Rectangle-5" x="0" y="0" width="95.7960523" height="7.79558208" rx="3.89779104"></rect>
                                                <path d="M15.0577794,11.2602852 L80.0592896,11.2602852 C81.4560976,11.2602852 82.5884342,12.3926218 82.5884342,13.7894298 L82.5884342,13.7894298 C82.5884342,15.1862378 81.4560976,16.3185744 80.0592896,16.3185744 L15.0577794,16.3185744 C13.6609714,16.3185744 12.5286348,15.1862378 12.5286348,13.7894298 L12.5286348,13.7894298 C12.5286348,12.3926218 13.6609714,11.2602852 15.0577794,11.2602852 Z" id="Rectangle-5-Copy"></path>
                                            </g>
                                        </g>
                                    </g>
                                </g>
                            </g>
                            <g id="Group-21" transform="translate(146.981945, 184.987135)">
                                <g id="Rectangle-3">
                                    <use fill="black" fill-opacity="1" filter="url(#filter-21)" xlink:href="#path-20"></use>
                                    <use fill="#34495E" fill-rule="evenodd" xlink:href="#path-20"></use>
                                </g>
                                <path d="M33.7558991,13.1155062 L33.0083602,13.1155062 L33.0083602,11.5846615 C33.0083602,9.4720957 31.3338731,7.75754958 29.2706658,7.75754958 C27.2074585,7.75754958 25.5329714,9.4720957 25.5329714,11.5846615 L25.5329714,13.1155062 L24.7854325,13.1155062 C23.9631398,13.1155062 23.2903548,13.8043864 23.2903548,14.646351 L23.2903548,22.3005748 C23.2903548,23.1425394 23.9631398,23.8314195 24.7854325,23.8314195 L33.7558991,23.8314195 C34.5781919,23.8314195 35.2509768,23.1425394 35.2509768,22.3005748 L35.2509768,14.646351 C35.2509768,13.8043864 34.5781919,13.1155062 33.7558991,13.1155062 Z M29.2706658,20.0043076 C28.4483731,20.0043076 27.7755881,19.3154275 27.7755881,18.4734629 C27.7755881,17.6314982 28.4483731,16.9426181 29.2706658,16.9426181 C30.0929586,16.9426181 30.7657436,17.6314982 30.7657436,18.4734629 C30.7657436,19.3154275 30.0929586,20.0043076 29.2706658,20.0043076 Z M27.0280492,13.1155062 L27.0280492,11.5846615 C27.0280492,10.3140603 28.0297513,9.28839433 29.2706658,9.28839433 C30.5115804,9.28839433 31.5132825,10.3140603 31.5132825,11.5846615 L31.5132825,13.1155062 L27.0280492,13.1155062 Z" id="icon/action/lock_24px" fill="#FFFFFF" fill-rule="nonzero"></path>
                                <path d="M45.3716054,22.0051122 C44.7643279,21.8671995 44.2812735,21.7109008 43.9224278,21.5362114 L44.1156514,19.8398939 C45.311804,20.409933 46.3929257,20.6949482 47.359049,20.6949482 C47.9019183,20.6949482 48.3251659,20.5938138 48.6288046,20.3915418 C48.9324434,20.1892699 49.0842605,19.8858666 49.0842605,19.4813227 C49.0842605,19.1687206 49.0037514,18.9158845 48.8427309,18.7228067 C48.6817103,18.529729 48.4447836,18.3619377 48.1319437,18.219428 C47.8191038,18.0769182 47.3544515,17.9045299 46.7379729,17.702258 C46.1398966,17.5091802 45.6430406,17.3000158 45.2473902,17.0747584 C44.8517397,16.849501 44.5366042,16.5598888 44.3019743,16.2059129 C44.0673443,15.851937 43.9500311,15.4083245 43.9500311,14.8750621 C43.9500311,14.0659744 44.2513651,13.4131975 44.854042,12.9167118 C45.4567188,12.4202262 46.3193159,12.1719871 47.4418592,12.1719871 C47.9939296,12.1719871 48.5367907,12.2317484 49.0704588,12.3512727 C49.6041269,12.470797 50.0779802,12.6224987 50.492033,12.8063823 L50.3264127,14.4613262 C49.7743423,14.194695 49.2613845,13.9970231 48.7875241,13.8683046 C48.3136636,13.7395861 47.8329095,13.6752278 47.3452473,13.6752278 C46.7931769,13.6752278 46.3653287,13.7694667 46.06169,13.9579474 C45.7580512,14.1464281 45.6062342,14.4337418 45.6062342,14.8198973 C45.6062342,15.0957227 45.6821427,15.3232752 45.8339621,15.5025617 C45.9857814,15.6818482 46.1974053,15.8312514 46.4688399,15.9507757 C46.7402745,16.0703 47.1336188,16.2128076 47.6488845,16.3783029 C48.7530254,16.7184875 49.5650168,17.1161297 50.0848831,17.5712416 C50.6047494,18.0263534 50.8646787,18.6492497 50.8646787,19.4399491 C50.8646787,20.2214543 50.5794466,20.8788282 50.0089738,21.4120906 C49.438501,21.945353 48.4723923,22.2119801 47.1106185,22.2119801 C46.5585481,22.2119801 45.9788829,22.1430248 45.3716054,22.0051122 Z M53.3558841,21.6741234 C52.799213,21.3523271 52.3782657,20.9179087 52.0930293,20.370855 C51.8077929,19.8238014 51.6651768,19.2146962 51.6651768,18.5435211 C51.6651768,17.8999286 51.7962916,17.3138085 52.058525,16.7851432 C52.3207585,16.256478 52.707202,15.8358506 53.2178671,15.5232485 C53.7285323,15.2106464 54.3288999,15.0543477 55.0189879,15.0543477 C55.6262654,15.0543477 56.1530247,15.1807658 56.5992816,15.4336057 C57.0455385,15.6864456 57.3859769,16.0335207 57.6206068,16.4748413 C57.8552367,16.9161618 57.9725499,17.4218341 57.9725499,17.9918732 C57.9725499,18.2860869 57.9403463,18.5665051 57.8759381,18.8331363 L53.2661731,18.8331363 C53.3489836,19.5410881 53.5951113,20.0559544 54.0045636,20.3777506 C54.4140158,20.6995469 54.922373,20.8604426 55.5296505,20.8604426 C56.2749456,20.8604426 56.9512217,20.6903529 57.5584992,20.3501682 L57.6689127,21.6327498 C56.9696235,21.9821286 56.2059375,22.1568153 55.3778319,22.1568153 C54.5865309,22.1568153 53.9125551,21.9959196 53.3558841,21.6741234 Z M56.3991571,17.7850052 C56.3991571,17.3804613 56.2841441,17.0402818 56.0541148,16.7644564 C55.8240854,16.4886311 55.4744461,16.3507205 55.0051862,16.3507205 C54.1126724,16.3507205 53.5514092,16.8288106 53.3213798,17.7850052 L56.3991571,17.7850052 Z M60.4085485,21.6879146 C59.8702799,21.3753125 59.463134,20.9523866 59.1870988,20.4191242 C58.9110636,19.8858619 58.7730481,19.2882492 58.7730481,18.6262683 C58.7730481,17.9458991 58.9087633,17.3344954 59.180198,16.7920388 C59.4516326,16.2495823 59.8587784,15.8220594 60.4016477,15.5094573 C60.9445169,15.1968552 61.6161926,15.0405565 62.4166947,15.0405565 C63.1067827,15.0405565 63.7232521,15.1830642 64.2661214,15.4680837 L64.1005011,16.736874 C63.566833,16.479437 63.0377734,16.3507205 62.5133065,16.3507205 C61.8232185,16.3507205 61.2895584,16.5529894 60.9123103,16.9575332 C60.5350622,17.3620771 60.3464409,17.9091225 60.3464409,18.5986859 C60.3464409,19.2790552 60.5350622,19.8261006 60.9123103,20.2398386 C61.2895584,20.6535767 61.8140174,20.8604426 62.4857031,20.8604426 C63.0561759,20.8604426 63.599037,20.713338 64.1143028,20.4191242 L64.2799231,21.7017058 C64.0406925,21.8396185 63.7508599,21.9499469 63.4104165,22.0326946 C63.0699731,22.1154422 62.7157332,22.1568153 62.3476862,22.1568153 C61.59319,22.1568153 60.9468172,22.0005166 60.4085485,21.6879146 Z M71.3049842,15.1784685 L71.3049842,22.0189034 L69.8834099,22.0189034 L69.8144014,21.4948378 C69.6119756,21.6971097 69.3658479,21.8580054 69.0760109,21.9775298 C68.786174,22.0970541 68.4802395,22.1568153 68.1581984,22.1568153 C67.2104775,22.1568153 66.5111988,21.8809941 66.0603413,21.3293434 C65.6094838,20.7776927 65.3840584,19.9870051 65.3840584,18.9572571 L65.3840584,15.1784685 L66.9298479,15.1784685 L66.9298479,18.8331363 C66.9298479,19.5135056 67.0425606,20.0191778 67.2679893,20.3501682 C67.4934181,20.6811587 67.8591593,20.8466514 68.3652238,20.8466514 C68.9633001,20.8466514 69.4279524,20.6305915 69.7591947,20.198465 L69.7591947,15.1784685 L71.3049842,15.1784685 Z M72.9335838,15.1784685 L74.3275546,15.1784685 L74.4103648,16.0473141 C74.6587965,15.7439062 74.9440286,15.5002641 75.2660697,15.3163805 C75.5881108,15.1324969 75.9239486,15.0405565 76.2735932,15.0405565 C76.3656049,15.0405565 76.4668163,15.0497506 76.5772304,15.0681389 L76.4530152,16.6403356 C76.3057964,16.5943647 76.1309767,16.5713796 75.9285509,16.5713796 C75.6249121,16.5713796 75.33968,16.6426335 75.072846,16.7851432 C74.806012,16.927653 74.6173907,17.0954443 74.5069766,17.288522 L74.5069766,22.0189034 L72.9335838,22.0189034 L72.9335838,15.1784685 Z M78.5577732,21.6741234 C78.0011021,21.3523271 77.5801548,20.9179087 77.2949184,20.370855 C77.009682,19.8238014 76.8670659,19.2146962 76.8670659,18.5435211 C76.8670659,17.8999286 76.9981807,17.3138085 77.2604141,16.7851432 C77.5226476,16.256478 77.9090911,15.8358506 78.4197562,15.5232485 C78.9304214,15.2106464 79.530789,15.0543477 80.220877,15.0543477 C80.8281545,15.0543477 81.3549138,15.1807658 81.8011707,15.4336057 C82.2474276,15.6864456 82.587866,16.0335207 82.8224959,16.4748413 C83.0571258,16.9161618 83.174439,17.4218341 83.174439,17.9918732 C83.174439,18.2860869 83.1422354,18.5665051 83.0778272,18.8331363 L78.4680622,18.8331363 C78.5508727,19.5410881 78.7970004,20.0559544 79.2064527,20.3777506 C79.6159049,20.6995469 80.1242621,20.8604426 80.7315396,20.8604426 C81.4768347,20.8604426 82.1531108,20.6903529 82.7603883,20.3501682 L82.8708018,21.6327498 C82.1715126,21.9821286 81.4078266,22.1568153 80.579721,22.1568153 C79.78842,22.1568153 79.1144442,21.9959196 78.5577732,21.6741234 Z M81.6010462,17.7850052 C81.6010462,17.3804613 81.4860332,17.0402818 81.2560039,16.7644564 C81.0259745,16.4886311 80.6763352,16.3507205 80.2070753,16.3507205 C79.3145615,16.3507205 78.7532983,16.8288106 78.5232689,17.7850052 L81.6010462,17.7850052 Z M90.5583441,11.6755039 L90.5583441,22.0189034 L89.1367699,22.0189034 L89.0677614,21.439673 C88.5432945,21.9177703 87.8946215,22.1568153 87.1217229,22.1568153 C86.4868419,22.1568153 85.9301792,21.9982181 85.4517182,21.681019 C84.9732571,21.3638198 84.6052157,20.9362969 84.3475828,20.3984374 C84.08995,19.860578 83.9611355,19.2652638 83.9611355,18.6124771 C83.9611355,17.9688846 84.0876497,17.375869 84.340682,16.8334124 C84.5937143,16.2909559 84.9571552,15.858836 85.4310156,15.5370397 C85.9048761,15.2152434 86.4684395,15.0543477 87.1217229,15.0543477 C87.867018,15.0543477 88.4972889,15.2750047 89.0125546,15.7163253 L89.0125546,11.6755039 L90.5583441,11.6755039 Z M88.6468098,20.267421 C88.9642503,19.8720714 89.1229682,19.3204289 89.1229682,18.6124771 C89.1229682,17.9137195 88.96195,17.3620771 88.639909,16.9575332 C88.3178679,16.5529894 87.8900197,16.3507205 87.3563516,16.3507205 C86.79508,16.3507205 86.3534303,16.5598849 86.0313892,16.97822 C85.7093481,17.3965552 85.54833,17.9413021 85.54833,18.6124771 C85.54833,19.274458 85.7093481,19.8146079 86.0313892,20.232943 C86.3534303,20.6512782 86.79508,20.8604426 87.3563516,20.8604426 C87.8992209,20.8604426 88.3293693,20.6627707 88.6468098,20.267421 Z" id="Secured" fill="#FFFFFF"></path>
                            </g>
                            <g id="icon/action/search_24px-copy-2" transform="translate(34.756998, 20.367130) rotate(55.000000) translate(-34.756998, -20.367130) translate(21.256998, 5.867130)">
                                <mask id="mask-23" fill="white">
                                    <use xlink:href="#path-22"></use>
                                </mask>
                                <use id="icon/action/perm_contact_calendar_24px" fill="#FFFFFF" fill-rule="nonzero" xlink:href="#path-22"></use>
                            </g>
                            <g id="icon/action/search_24px-copy-3" transform="translate(234.903292, 140.015621) rotate(-23.000000) translate(-234.903292, -140.015621) translate(224.903292, 126.515621)">
                                <mask id="mask-25" fill="white">
                                    <use xlink:href="#path-24"></use>
                                </mask>
                                <use id="icon/action/lock_24px" fill="#FFFFFF" fill-rule="nonzero" xlink:href="#path-24"></use>
                            </g>
                        </g>
                    </g>
                </g>
            </g>
        </g>
    </g>
</svg>