<svg xmlns="http://www.w3.org/2000/svg" xmlns:xlink="http://www.w3.org/1999/xlink" width="60px" height="40px" viewBox="0 0 60 40" version="1.1">
    <!-- Generator: Sketch 52.6 (67491) - http://www.bohemiancoding.com/sketch -->
    <title>Top 3 Benefits Icons / Screened Profiles</title>
    <desc>Created with Sketch.</desc>
    <defs>
        <rect id="path-1" x="0" y="0" width="46.987013" height="40"/>
        <path d="M7.51254393,15.0287408 C3.53678289,15.0287408 0.313791761,11.6644426 0.313791761,7.51437041 C0.313791761,3.36429823 3.53678289,0 7.51254393,0 C11.488305,0 14.7112961,3.36429823 14.7112961,7.51437041 C14.7112961,11.6644426 11.488305,15.0287408 7.51254393,15.0287408 Z M6.90526233,16.3946342 L8.35978394,16.3946342 C12.173455,16.3946342 15.2650463,19.4862255 15.2650463,23.2998965 L15.2650463,33.2209206 C15.2650463,37.0345917 12.173455,40.126183 8.35978394,40.126183 L6.90526233,40.126183 C3.09159125,40.126183 9.63903093e-14,37.0345917 9.59232693e-14,33.2209206 L9.59232693e-14,23.2998965 C9.54562293e-14,19.4862255 3.09159125,16.3946342 6.90526233,16.3946342 Z" id="path-3"/>
        <path d="M7.51254393,15.0287408 C3.53678289,15.0287408 0.313791761,11.6644426 0.313791761,7.51437041 C0.313791761,3.36429823 3.53678289,0 7.51254393,0 C11.488305,0 14.7112961,3.36429823 14.7112961,7.51437041 C14.7112961,11.6644426 11.488305,15.0287408 7.51254393,15.0287408 Z M6.90526233,16.3946342 L8.35978394,16.3946342 C12.173455,16.3946342 15.2650463,19.4862255 15.2650463,23.2998965 L15.2650463,31.7937707 C15.2650463,35.6074418 12.173455,38.6990331 8.35978394,38.6990331 L6.90526233,38.6990331 C3.09159125,38.6990331 2.16065019e-15,35.6074418 0,31.7937707 L0,23.2998965 C-4.67040008e-16,19.4862255 3.09159125,16.3946342 6.90526233,16.3946342 Z" id="path-5"/>
        <path d="M9.64828859,18.3656138 C4.54225657,18.3656138 0.402999769,14.2543311 0.402999769,9.18280688 C0.402999769,4.11128268 4.54225657,0 9.64828859,0 C14.7543206,0 18.8935774,4.11128268 18.8935774,9.18280688 C18.8935774,14.2543311 14.7543206,18.3656138 9.64828859,18.3656138 Z M6.90526233,20.0347802 L12.6994911,20.0347802 C16.5131622,20.0347802 19.6047535,23.1263715 19.6047535,26.9400426 L19.6047535,37.4437622 C19.6047535,41.2574333 16.5131622,44.3490245 12.6994911,44.3490245 L6.90526233,44.3490245 C3.09159125,44.3490245 6.53040646e-14,41.2574333 6.48370246e-14,37.4437622 L6.48370246e-14,26.9400426 C6.43699846e-14,23.1263715 3.09159125,20.0347802 6.90526233,20.0347802 Z" id="path-7"/>
        <path d="M7.01758265,0 C3.14387703,0 0,3.14591983 0,7.02214248 C0,10.8983651 3.14387703,14.044285 7.01758265,14.044285 C10.8912883,14.044285 14.0351653,10.8983651 14.0351653,7.02214248 C14.0351653,3.14591983 10.8912883,0 7.01758265,0 Z" id="path-9"/>
    </defs>
    <g id="Top-3-Benefits-Icons-/-Screened-Profiles" stroke="none" stroke-width="1" fill="none" fill-rule="evenodd">
        <g id="Group-103">
            <g id="Group-54">
                <mask id="mask-2" fill="white">
                    <use xlink:href="#path-1"/>
                </mask>
                <g id="Rectangle-4"/>
                <g id="Group-Copy-37" mask="url(#mask-2)">
                    <g transform="translate(2.103896, 1.962594)" id="Group-2">
                        <g>
                            <g id="Group-53" opacity="0.613783482" transform="translate(0.000000, 5.614035)">
                                <g id="Group-58">
                                    <mask id="mask-4" fill="white">
                                        <use xlink:href="#path-3"/>
                                    </mask>
                                    <path stroke="#14202B" stroke-width="1.05263158" d="M7.51254393,14.502425 C11.1924566,14.502425 14.1849803,11.3786987 14.1849803,7.51437041 C14.1849803,3.65004211 11.1924566,0.526315789 7.51254393,0.526315789 C3.83263126,0.526315789 0.840107551,3.65004211 0.840107551,7.51437041 C0.840107551,11.3786987 3.83263126,14.502425 7.51254393,14.502425 Z M6.90526233,16.92095 C3.38226744,16.92095 0.526315789,19.7769016 0.526315789,23.2998965 L0.526315789,33.2209206 C0.526315789,36.7439155 3.38226744,39.5998672 6.90526233,39.5998672 L8.35978394,39.5998672 C11.8827788,39.5998672 14.7387305,36.7439155 14.7387305,33.2209206 L14.7387305,23.2998965 C14.7387305,19.7769016 11.8827788,16.92095 8.35978394,16.92095 L6.90526233,16.92095 Z"/>
                                </g>
                                <ellipse id="Oval" fill="#F5CAD0" style="mix-blend-mode: multiply;" cx="8.24208192" cy="6.97888658" rx="6.67216155" ry="6.97888658"/>
                            </g>
                            <g id="Group-53-Copy-2" opacity="0.613783482" transform="translate(28.277199, 5.490511)">
                                <g id="Group-58">
                                    <mask id="mask-6" fill="white">
                                        <use xlink:href="#path-5"/>
                                    </mask>
                                    <path stroke="#14202B" stroke-width="1.05263158" d="M7.51254393,14.502425 C11.1924566,14.502425 14.1849803,11.3786987 14.1849803,7.51437041 C14.1849803,3.65004211 11.1924566,0.526315789 7.51254393,0.526315789 C3.83263126,0.526315789 0.840107551,3.65004211 0.840107551,7.51437041 C0.840107551,11.3786987 3.83263126,14.502425 7.51254393,14.502425 Z M6.90526233,16.92095 C3.38226744,16.92095 0.526315789,19.7769016 0.526315789,23.2998965 L0.526315789,31.7937707 C0.526315789,35.3167656 3.38226744,38.1727173 6.90526233,38.1727173 L8.35978394,38.1727173 C11.8827788,38.1727173 14.7387305,35.3167656 14.7387305,31.7937707 L14.7387305,23.2998965 C14.7387305,19.7769016 11.8827788,16.92095 8.35978394,16.92095 L6.90526233,16.92095 Z"/>
                                </g>
                                <ellipse id="Oval" fill="#F5CAD0" style="mix-blend-mode: multiply;" cx="8.24208192" cy="6.97888658" rx="6.67216155" ry="6.97888658"/>
                            </g>
                            <g id="Group-53-Copy" transform="translate(10.519481, 0.000000)">
                                <g id="Group-58" transform="translate(0.574866, 0.593263)">
                                    <mask id="mask-8" fill="white">
                                        <use xlink:href="#path-7"/>
                                    </mask>
                                    <g id="Combined-Shape">
                                        <path stroke="#14202B" stroke-width="1.05263158" d="M9.64828859,17.839298 C14.4644404,17.839298 18.3672616,13.962853 18.3672616,9.18280688 C18.3672616,4.4027608 14.4644404,0.526315789 9.64828859,0.526315789 C4.8321368,0.526315789 0.929315559,4.4027608 0.929315559,9.18280688 C0.929315559,13.962853 4.8321368,17.839298 9.64828859,17.839298 Z M6.90526233,20.561096 C3.38226744,20.561096 0.526315789,23.4170477 0.526315789,26.9400426 L0.526315789,37.4437622 C0.526315789,40.9667571 3.38226744,43.8227087 6.90526233,43.8227087 L12.6994911,43.8227087 C16.222486,43.8227087 19.0784377,40.9667571 19.0784377,37.4437622 L19.0784377,26.9400426 C19.0784377,23.4170477 16.222486,20.561096 12.6994911,20.561096 L6.90526233,20.561096 Z" stroke-linejoin="square" fill="#FFFFFF" fill-rule="evenodd"/>
                                        <path stroke="#FFFFFF" stroke-width="0.701754386" d="M9.64828859,18.716491 C4.34900308,18.716491 0.0521225761,14.4486498 0.0521225761,9.18280688 C0.0521225761,3.91696393 4.34900308,-0.350877193 9.64828859,-0.350877193 C14.9475741,-0.350877193 19.2444546,3.91696393 19.2444546,9.18280688 C19.2444546,14.4486498 14.9475741,18.716491 9.64828859,18.716491 Z M6.90526233,19.683903 L12.6994911,19.683903 C16.7069463,19.683903 19.9556307,22.9325874 19.9556307,26.9400426 L19.9556307,37.4437622 C19.9556307,41.4512174 16.7069463,44.6999017 12.6994911,44.6999017 L6.90526233,44.6999017 C2.89780713,44.6999017 -0.350877193,41.4512174 -0.350877193,37.4437622 L-0.350877193,26.9400426 C-0.350877193,22.9325874 2.89780713,19.683903 6.90526233,19.683903 Z"/>
                                    </g>
                                </g>
                                <ellipse id="Oval" fill="#F5CAD0" style="mix-blend-mode: multiply;" cx="11.3712737" cy="9.65052967" rx="8.40126479" ry="8.34448697"/>
                            </g>
                        </g>
                    </g>
                </g>
            </g>
            <g id="Group-70" transform="translate(39.078964, 25.263158)">
                <g id="icon/action/check_circle_24px">
                    <mask id="mask-10" fill="white">
                        <use xlink:href="#path-9"/>
                    </mask>
                    <path xmlns="http://www.w3.org/2000/svg" fill="#D9475C" fill-rule="nonzero" stroke="#FFF" stroke-width="0.701754386" d="M7.01758265,-0.350877193 C11.0851234,-0.350877193 14.3860425,2.95218671 14.3860425,7.02214248 C14.3860425,11.0920983 11.0851234,14.3951622 7.01758265,14.3951622 C2.95004187,14.3951622 -0.350877193,11.0920983 -0.350877193,7.02214248 C-0.350877193,2.95218671 2.95004187,-0.350877193 7.01758265,-0.350877193 Z"/>
                    <path d="M5.90206756,9.84795435 L3.53458991,7.59358444 C3.41110341,7.47626205 3.34170602,7.31697993 3.34170602,7.15087391 C3.34170602,6.98476789 3.41110341,6.82548577 3.53458991,6.70816339 C3.79178107,6.46325969 4.20724372,6.46325969 4.46443489,6.70816339 L6.37028738,8.51668298 L10.9074033,4.19633062 C11.1645945,3.95142692 11.5800571,3.95142692 11.8372483,4.19633062 C12.0944395,4.44123431 12.0944395,4.83684797 11.8372483,5.08175167 L6.83191255,9.84795435 C6.58131603,10.092858 6.15925873,10.092858 5.90206756,9.84795435 Z" id="Path" fill="#FFFFFF" mask="url(#mask-10)"/>
                </g>
            </g>
        </g>
    </g>
</svg>