<?xml version="1.0" encoding="UTF-8"?>
<svg width="60px" height="40px" viewBox="0 0 60 40" version="1.1" xmlns="http://www.w3.org/2000/svg" xmlns:xlink="http://www.w3.org/1999/xlink">
    <!-- Generator: Sketch 52.6 (67491) - http://www.bohemiancoding.com/sketch -->
    <title>Top 3 Benefits Icons / Success Stories</title>
    <desc>Created with Sketch.</desc>
    <defs>
        <rect id="path-1" x="0.519666841" y="3.26260715" width="53" height="34"></rect>
        <polygon id="path-3" points="0 0 35.9917942 0 35.9917942 30.0976297 0 30.0976297"></polygon>
    </defs>
    <g id="Top-3-Benefits-Icons-/-Success-Stories" stroke="none" stroke-width="1" fill="none" fill-rule="evenodd">
        <g id="Group-102" transform="translate(-1.000000, -1.000000)">
            <g id="Group-101-Copy-2" transform="translate(6.086716, 0.729737)" fill="#000000" fill-rule="nonzero">
                <path d="M1.04695431,1 L1.04695431,34.3209888 L53.1065137,34.3209888 L53.1065137,1 L1.04695431,1 Z M0.262640585,0.215686275 L53.8908275,0.215686275 L53.8908275,35.1053025 L0.262640585,35.1053025 L0.262640585,0.215686275 Z" id="Rectangle"></path>
            </g>
            <g id="Group-101-Copy" transform="translate(0.480333, 2.737393)">
                <path d="M56.5196668,4 L56.5196668,35 L53.5196668,35 L53.5196668,4 L4,4 L4,1 L57,1 L57,4 L56.5196668,4 Z" id="Combined-Shape" fill="#FFFFFF" fill-rule="nonzero"></path>
                <path d="M4.04695431,1 L4.04695431,34.3209888 L56.1065137,34.3209888 L56.1065137,1 L4.04695431,1 Z M3.26264058,0.215686275 L56.8908275,0.215686275 L56.8908275,35.1053025 L3.26264058,35.1053025 L3.26264058,0.215686275 Z" id="Rectangle" fill="#000000" fill-rule="nonzero"></path>
                <mask id="mask-2" fill="white">
                    <use xlink:href="#path-1"></use>
                </mask>
                <use id="Rectangle" fill="#FFFFFF" fill-rule="nonzero" xlink:href="#path-1"></use>
                <rect id="Rectangle" fill="#EBF2F7" fill-rule="nonzero" mask="url(#mask-2)" x="0.98577996" y="12.1764254" width="46.3073765" height="20.7190741" rx="0.784313725"></rect>
                <g id="Group-90" mask="url(#mask-2)">
                    <g transform="translate(6.723221, 8.279146)">
                        <mask id="mask-4" fill="white">
                            <use xlink:href="#path-3"></use>
                        </mask>
                        <g id="Rectangle-15" stroke="none" fill="none"></g>
                        <g id="Group-88" stroke="none" stroke-width="1" fill="none" fill-rule="evenodd" mask="url(#mask-4)">
                            <g transform="translate(19.281318, 3.384712)" id="Oval">
                                <path d="M7.06981671,12.5061775 C10.5417292,12.5061775 13.3553197,9.87101316 13.3553197,6.62147854 C13.3553197,3.37194391 10.5417292,0.73677956 7.06981671,0.73677956 C3.59790421,0.73677956 0.784313725,3.37194391 0.784313725,6.62147854 C0.784313725,9.87101316 3.59790421,12.5061775 7.06981671,12.5061775 Z M7.06981671,13.2429571 C3.16526476,13.2429571 0,10.2784202 0,6.62147854 C0,2.96453692 3.16526476,0 7.06981671,0 C10.9743687,0 14.1396334,2.96453692 14.1396334,6.62147854 C14.1396334,10.2784202 10.9743687,13.2429571 7.06981671,13.2429571 Z" fill="#000000" fill-rule="nonzero"></path>
                                <ellipse fill="#F6CAD1" fill-rule="evenodd" style="mix-blend-mode: multiply;" cx="6.1057508" cy="6.32050224" rx="6.1057508" ry="5.71854965"></ellipse>
                            </g>
                        </g>
                        <g id="Group-Copy-18" stroke="none" stroke-width="1" fill="none" fill-rule="evenodd" mask="url(#mask-4)">
                            <g transform="translate(0.928132, 0.037507)" id="Group-2">
                                <g>
                                    <g id="Group">
                                        <g id="Group-3" transform="translate(0.000000, 0.498492)">
                                            <path d="M9.06171043,15.2445906 C13.0472925,15.2445906 16.2793648,12.1870237 16.2793648,8.41403633 C16.2793648,4.641049 13.0472925,1.58348204 9.06171043,1.58348204 C5.07612834,1.58348204 1.8440561,4.641049 1.8440561,8.41403633 C1.8440561,12.1870237 5.07612834,15.2445906 9.06171043,15.2445906 Z M9.06171043,15.9813702 C4.64172718,15.9813702 1.05974237,12.592783 1.05974237,8.41403633 C1.05974237,4.23528961 4.64172718,0.846702483 9.06171043,0.846702483 C13.4816937,0.846702483 17.0636785,4.23528961 17.0636785,8.41403633 C17.0636785,12.592783 13.4816937,15.9813702 9.06171043,15.9813702 Z M8.83783566,17.2899282 C4.79207964,17.2899282 1.51234638,20.3708898 1.51234638,24.1714485 L1.51234638,32.6000317 C1.51234638,36.4005904 4.79207964,39.4815519 8.83783566,39.4815519 L9.53924557,39.4815519 C13.5850016,39.4815519 16.8647348,36.4005904 16.8647348,32.6000317 L16.8647348,24.1714485 C16.8647348,20.3708898 13.5850016,17.2899282 9.53924557,17.2899282 L8.83783566,17.2899282 Z M8.83783566,16.5531487 L9.53924557,16.5531487 C14.0181661,16.5531487 17.6490486,19.9639777 17.6490486,24.1714485 L17.6490486,32.6000317 C17.6490486,36.8075025 14.0181661,40.2183315 9.53924557,40.2183315 L8.83783566,40.2183315 C4.35891514,40.2183315 0.728032656,36.8075025 0.728032656,32.6000317 L0.728032656,24.1714485 C0.728032656,19.9639777 4.35891514,16.5531487 8.83783566,16.5531487 Z" id="Combined-Shape" fill="#000000" fill-rule="nonzero"></path>
                                            <ellipse id="Oval" fill="#F6CAD1" style="mix-blend-mode: multiply;" cx="10.0958662" cy="8.41403633" rx="7.60981119" ry="7.19894407"></ellipse>
                                            <path d="M12.7810405,18.4385139 C15.5041781,19.5528655 17.4226248,22.22905 17.4226248,25.3533117 L17.4226248,28.5751852 C17.4226248,32.699805 14.0789597,36.0434701 9.9543399,36.0434701 C5.82972006,36.0434701 2.48605504,32.699805 2.48605504,28.5751852 L2.48605504,25.3533117 C2.48605504,22.3611488 4.24570133,19.7799733 6.78662324,18.5881559 C7.37177866,19.5176889 8.47506599,20.1442534 9.73970321,20.1442534 C11.0710772,20.1442534 12.2236226,19.4498146 12.7810405,18.4385139 Z" id="Combined-Shape" fill="#D2E1EC"></path>
                                        </g>
                                    </g>
                                    <g id="Group-89" transform="translate(17.097679, 17.229736)">
                                        <g id="Group-68" transform="translate(0.019510, 0.064673)">
                                            <g id="Group-66">
                                                <path d="M7.89014009,0.836460636 C4.23145994,0.836460636 1.26551367,3.62265259 1.26551367,7.05959455 L1.26551367,13.6058249 C1.26551367,17.0427669 4.23145994,19.8289588 7.89014009,19.8289588 L8.56349359,19.8289588 C12.2221737,19.8289588 15.18812,17.0427669 15.18812,13.6058249 L15.18812,7.05959455 C15.18812,3.62265259 12.2221737,0.836460636 8.56349359,0.836460636 L7.89014009,0.836460636 Z M7.89014009,0.0996810754 L8.56349359,0.0996810754 C12.6553382,0.0996810754 15.9724337,3.21574048 15.9724337,7.05959455 L15.9724337,13.6058249 C15.9724337,17.449679 12.6553382,20.5657384 8.56349359,20.5657384 L7.89014009,20.5657384 C3.79829543,20.5657384 0.481199943,17.449679 0.481199943,13.6058249 L0.481199943,7.05959455 C0.481199943,3.21574048 3.79829543,0.0996810754 7.89014009,0.0996810754 Z" id="Rectangle-11" fill="#000000" fill-rule="nonzero"></path>
                                                <path d="M13.1828841,2.31323296 C14.7947044,3.59513096 15.8280446,5.57323851 15.8280446,7.79269559 L15.8280446,11.6882938 C15.8280446,15.5527556 12.6952792,18.685521 8.83081735,18.685521 C4.96635547,18.685521 1.83359014,15.5527556 1.83359014,11.6882938 L1.83359014,7.79269559 C1.83359014,5.63729136 2.80814719,3.70950714 4.34065703,2.42594716 C5.21361083,3.82787867 6.85136665,4.77186005 8.72779221,4.77186005 C10.6540768,4.77186005 12.3288396,3.77704661 13.1828841,2.31323296 Z" id="Combined-Shape" fill="#D9475C" style="mix-blend-mode: multiply;"></path>
                                            </g>
                                        </g>
                                    </g>
                                </g>
                            </g>
                        </g>
                    </g>
                </g>
            </g>
            <g id="Group-101" transform="translate(0.419159, 5.531021)" fill="#000000" fill-rule="nonzero">
                <path d="M1.04695431,1 L1.04695431,34.3209888 L53.1065137,34.3209888 L53.1065137,1 L1.04695431,1 Z M0.262640585,0.215686275 L53.8908275,0.215686275 L53.8908275,35.1053025 L0.262640585,35.1053025 L0.262640585,0.215686275 Z" id="Rectangle"></path>
            </g>
        </g>
    </g>
</svg>