<?xml version="1.0" encoding="UTF-8"?>
<svg width="60px" height="40px" viewBox="0 0 60 40" version="1.1" xmlns="http://www.w3.org/2000/svg" xmlns:xlink="http://www.w3.org/1999/xlink">
    <!-- Generator: Sketch 52.6 (67491) - http://www.bohemiancoding.com/sketch -->
    <title>Top 3 Benefits Icons / Verfications by Personal Visit</title>
    <desc>Created with Sketch.</desc>
    <defs>
        <polygon id="path-1" points="0 0 18.5394988 0 18.5394988 30.6083947 9.59596356 33.5570062 0 30.6083947"></polygon>
        <path d="M8.22779657,15.4048517 C3.87351214,15.4048517 0.343667179,11.9563581 0.343667179,7.70242583 C0.343667179,3.44849351 3.87351214,0 8.22779657,0 C12.582081,0 16.111926,3.44849351 16.111926,7.70242583 C16.111926,11.9563581 12.582081,15.4048517 8.22779657,15.4048517 Z M7.56922987,16.804928 L9.1491676,16.804928 C13.3295378,16.804928 16.7183975,20.1937877 16.7183975,24.3741579 L16.7183975,24.6405498 C16.7183975,28.82092 13.3295378,32.2097797 9.1491676,32.2097797 L7.56922987,32.2097797 C3.38885964,32.2097797 5.11947701e-16,28.82092 0,24.6405498 L0,24.3741579 C-5.11947701e-16,20.1937877 3.38885964,16.804928 7.56922987,16.804928 Z" id="path-3"></path>
    </defs>
    <g id="Top-3-Benefits-Icons-/-Verfications-by-Personal-Visit" stroke="none" stroke-width="1" fill="none" fill-rule="evenodd">
        <g id="Group-100">
            <g id="Group-80" transform="translate(3.218475, 2.633313)">
                <path d="M17.1384963,33.9413693 C29.6882269,31.1632977 32.9438056,19.5519005 33.9939923,6.99270154 C28.2179656,6.58756609 21.3917523,5.14065377 17.1384963,0.510534346 C12.9377496,5.14065377 6.11153628,6.58756609 0.388018944,6.99270154 C1.43820561,19.5519005 4.69378428,31.1632977 17.1384963,33.9413693 Z" id="Path" fill="#E4EFF7"></path>
                <g id="Group-56" transform="translate(7.732660, 2.075670)">
                    <mask id="mask-2" fill="white">
                        <use xlink:href="#path-1"></use>
                    </mask>
                    <g id="Rectangle-10"></g>
                    <g id="Group-53-Copy" mask="url(#mask-2)">
                        <g transform="translate(0.598048, 3.531738)">
                            <g id="Group-58" stroke-width="1" fill="none" transform="translate(0.490230, 0.497621)">
                                <mask id="mask-4" fill="white">
                                    <use xlink:href="#path-3"></use>
                                </mask>
                                <g id="Combined-Shape">
                                    <path stroke="#14202B" stroke-width="0.923076923" d="M8.22779657,14.9433132 C12.3295579,14.9433132 15.6503875,11.6990179 15.6503875,7.70242583 C15.6503875,3.70583378 12.3295579,0.461538462 8.22779657,0.461538462 C4.12603529,0.461538462 0.80520564,3.70583378 0.80520564,7.70242583 C0.80520564,11.6990179 4.12603529,14.9433132 8.22779657,14.9433132 Z M7.56922987,17.2664665 C3.6437603,17.2664665 0.461538462,20.4486883 0.461538462,24.3741579 L0.461538462,24.6405498 C0.461538462,28.5660194 3.6437603,31.7482412 7.56922987,31.7482412 L9.1491676,31.7482412 C13.0746372,31.7482412 16.256859,28.5660194 16.256859,24.6405498 L16.256859,24.3741579 C16.256859,20.4486883 13.0746372,17.2664665 9.1491676,17.2664665 L7.56922987,17.2664665 Z" stroke-linejoin="square" fill="#FFFFFF" fill-rule="evenodd"></path>
                                    <path stroke="#FFFFFF" stroke-width="0.769230769" d="M8.22779657,15.789467 C3.66307619,15.789467 -0.0409482058,12.1708084 -0.0409482058,7.70242583 C-0.0409482058,3.23404328 3.66307619,-0.384615385 8.22779657,-0.384615385 C12.792517,-0.384615385 16.4965414,3.23404328 16.4965414,7.70242583 C16.4965414,12.1708084 12.792517,15.789467 8.22779657,15.789467 Z M7.56922987,16.4203126 L9.1491676,16.4203126 C13.541955,16.4203126 17.1030128,19.9813704 17.1030128,24.3741579 L17.1030128,24.6405498 C17.1030128,29.0333372 13.541955,32.594395 9.1491676,32.594395 L7.56922987,32.594395 C3.17644243,32.594395 -0.384615385,29.0333372 -0.384615385,24.6405498 L-0.384615385,24.3741579 C-0.384615385,19.9813704 3.17644243,16.4203126 7.56922987,16.4203126 Z"></path>
                                </g>
                            </g>
                            <ellipse id="Oval" fill="#F5CAD0" style="mix-blend-mode: multiply;" cx="9.69711113" cy="8.09474597" rx="7.16436879" ry="6.99925337"></ellipse>
                        </g>
                    </g>
                    <path d="" id="Path-2" stroke="#979797" stroke-width="0.5" fill-rule="nonzero" mask="url(#mask-2)"></path>
                </g>
            </g>
            <g id="noun_protect_1589646" transform="translate(20.456481, 19.839566) scale(1, -1) rotate(-180.000000) translate(-20.456481, -19.839566) translate(0.956481, 0.339566)" fill="#14202B" fill-rule="nonzero">
                <path d="M19.3753912,38.6706673 C4.71895186,35.5367171 1.62777556,21.6660856 0.561852697,7.62134573 C7.75683202,7.21509292 14.5254422,6.28651508 19.5352797,0.0766507652 C24.5984133,6.28651508 31.4203196,7.21509292 38.5620028,7.62134573 C37.549376,21.6660856 34.4049036,35.5367171 19.7484642,38.6706673 L19.5352797,38.6706673 L19.3753912,38.6706673 Z M19.5320732,37.7091435 C33.0361973,34.7198025 36.5393591,22.0151033 37.6694114,8.50079095 C31.4541241,8.06484539 24.1087847,6.50789696 19.5320732,1.52566198 C15.0118643,6.50789696 7.66652484,8.06484539 1.50774022,8.50079095 C2.63779245,22.0151033 6.14095434,34.7198025 19.5320732,37.7091435 Z" id="Shape"></path>
            </g>
        </g>
    </g>
</svg>